%TF.GenerationSoftware,Novarm,DipTrace,3.3.0.1*%
%TF.CreationDate,2019-03-05T05:50:44+02:00*%
%FSLAX35Y35*%
%MOMM*%
%TF.FileFunction,Soldermask,Bot*%
%TF.Part,Single*%
%ADD18R,1.7X1.7*%
%ADD19C,1.7*%
%ADD29R,2.1X2.1*%
%ADD37R,1.9X1.9*%
%ADD38C,1.9*%
%ADD39R,2.3X2.3*%
%ADD43R,2.5X2.5*%
%ADD44C,2.5*%
%ADD51C,3.0*%
%ADD52C,3.1*%
%ADD53C,2.4*%
%ADD57C,1.8*%
%ADD60C,1.82*%
%ADD62R,1.82X1.82*%
%ADD64R,0.85X1.25*%
%ADD66C,2.7*%
%ADD67R,2.7X2.7*%
%ADD68O,3.0X3.4*%
%ADD70C,2.2*%
%ADD71C,1.8*%
%ADD72C,2.1*%
%ADD73C,1.7*%
%ADD75R,0.8X2.2*%
%ADD78R,0.8X1.3*%
%ADD80R,1.25X0.85*%
%ADD84R,1.8X1.8*%
%ADD86R,1.7X1.5*%
%ADD88R,1.5X1.7*%
G75*
G01*
%LPD*%
D37*
X10829877Y18090000D3*
D38*
Y17840000D3*
D88*
X11416000Y9922750D3*
X11606000D3*
D37*
X6335500Y14494750D3*
D38*
X6685500D3*
D88*
X7859500Y13923250D3*
X7669500D3*
X10145500Y13828000D3*
X9955500D3*
D86*
X5256000Y17860250D3*
Y17670250D3*
D88*
X6033877Y15733000D3*
X6223877D3*
X10113750Y15923500D3*
X10303750D3*
D86*
X9367627Y16526750D3*
Y16716750D3*
D88*
X6875500Y16034873D3*
X7065500D3*
D84*
X7129250Y15748877D3*
D57*
X6875250D3*
D86*
X8859123Y16526750D3*
Y16716750D3*
D88*
X3922500Y15288500D3*
X4112500D3*
X5573000Y13828000D3*
X5383000D3*
X3462123Y14415377D3*
X3272123D3*
X3462123Y14653500D3*
X3272123D3*
X3462123Y15066250D3*
X3272123D3*
X3462123Y15336127D3*
X3272123D3*
D19*
X2970000Y8945750D3*
D18*
Y9199750D3*
D80*
X5224250Y16495000D3*
Y16685000D3*
X5454250Y16590000D3*
D39*
X8558001Y14764623D3*
X9011484D3*
D78*
X10209000Y16145750D3*
X10114000D3*
X10019000D3*
Y16415750D3*
X10209000D3*
D38*
X9828000Y17384000D3*
X9578000D3*
X8578000D3*
X8328000D3*
X9828000Y15484000D3*
X9578000D3*
X9328000D3*
X8578000D3*
X8328000D3*
D37*
X7178000Y16484000D3*
D18*
X5383000Y12812000D3*
D19*
X5637000D3*
X5891000D3*
X6145000D3*
X6399000D3*
X6653000D3*
X6907000D3*
X7161000D3*
Y13574000D3*
X6907000D3*
X6653000D3*
X6399000D3*
X6145000D3*
X5891000D3*
X5637000D3*
X5383000D3*
D18*
X7669000Y12812000D3*
D19*
X7923000D3*
X8177000D3*
X8431000D3*
X8685000D3*
X8939000D3*
X9193000D3*
X9447000D3*
Y13574000D3*
X9193000D3*
X8939000D3*
X8685000D3*
X8431000D3*
X8177000D3*
X7923000D3*
X7669000D3*
D18*
X9955000Y12812000D3*
D19*
X10209000D3*
X10463000D3*
X10717000D3*
X10971000D3*
X11225000D3*
X11479000D3*
X11733000D3*
Y13574000D3*
X11479000D3*
X11225000D3*
X10971000D3*
X10717000D3*
X10463000D3*
X10209000D3*
X9955000D3*
D84*
X10145500Y18209500D3*
D71*
X9891500D3*
X9637500D3*
D19*
X4509873Y13208877D3*
Y13462877D3*
Y13716877D3*
Y13970877D3*
Y14224877D3*
Y14478877D3*
Y14732877D3*
Y14986877D3*
Y15240877D3*
Y15494877D3*
Y15748877D3*
Y16002877D3*
Y16256877D3*
Y16510877D3*
Y16764877D3*
Y17018877D3*
Y17272877D3*
Y17526877D3*
Y17780877D3*
Y18034877D3*
X2985873D3*
Y17780877D3*
Y17526877D3*
Y17272877D3*
Y17018877D3*
Y16764877D3*
Y16510877D3*
Y16256877D3*
Y16002877D3*
Y15748877D3*
Y15494877D3*
Y15240877D3*
Y14986877D3*
Y14732877D3*
Y14478877D3*
Y14224877D3*
Y13970877D3*
Y13716877D3*
Y13462877D3*
Y13208877D3*
D75*
X3795500Y16368000D3*
X3922500D3*
X4049500D3*
X4176500D3*
Y15628000D3*
X4049500D3*
X3922500D3*
X3795500D3*
D18*
X5891000Y10469750D3*
D73*
X5637050D3*
X5383050D3*
X5129050D3*
X4875050D3*
X4621050D3*
X5891000Y8945750D3*
X5637100D3*
X5383000D3*
X5129000D3*
X4875000D3*
X4621000D3*
D18*
X9701000Y10469750D3*
D73*
X9447050D3*
X9193050D3*
X8939050D3*
X8685050D3*
X8431050D3*
X9701000Y8945750D3*
X9447100D3*
X9193000D3*
X8939000D3*
X8685000D3*
X8431000D3*
D51*
X2200000Y17900000D3*
D52*
X11415450Y7133200D3*
D51*
X2200000Y11900000D3*
D52*
X2970000Y5863250D3*
D51*
X12700000Y17900000D3*
Y11900000D3*
X2200000Y10700000D3*
X14600000D3*
X2200000Y8700000D3*
X14600000D3*
X2100000Y19600000D3*
X7450000D3*
X12800000D3*
D29*
X10653500Y15161500D3*
D72*
X12653500D3*
D37*
X12250000Y9369000D3*
D38*
Y9623000D3*
Y9877000D3*
Y10131000D3*
D37*
X14150000D3*
D38*
Y9877000D3*
Y9623000D3*
Y9369000D3*
D43*
X14606250Y11591500D3*
D44*
X14352250D3*
X14098250D3*
X13844250D3*
D43*
Y13491500D3*
D44*
X14098250D3*
X14352250D3*
X14606250D3*
D43*
Y14091500D3*
D44*
X14352250D3*
X14098250D3*
X13844250D3*
D43*
Y15991500D3*
D44*
X14098250D3*
X14352250D3*
X14606250D3*
D88*
X3954250Y16780750D3*
X4144250D3*
D86*
X5383000Y12335750D3*
Y12145750D3*
X5637000Y12335750D3*
Y12145750D3*
X5891000Y12335750D3*
Y12145750D3*
X6145000Y12335750D3*
Y12145750D3*
X6399000Y12335750D3*
Y12145750D3*
X6653000Y12335750D3*
Y12145750D3*
X6907000Y12335750D3*
Y12145750D3*
X7161000Y12335750D3*
Y12145750D3*
X7669000Y12335750D3*
Y12145750D3*
X7923000Y12335750D3*
Y12145750D3*
X8177000Y12335750D3*
Y12145750D3*
X8431000Y12335750D3*
Y12145750D3*
X8685000Y12335750D3*
Y12145750D3*
X8939000Y12335750D3*
Y12145750D3*
X9193000Y12335750D3*
Y12145750D3*
X9447000Y12335750D3*
Y12145750D3*
X2970000Y9764000D3*
Y9574000D3*
X11002750Y10113250D3*
Y9923250D3*
X7669000Y15367877D3*
Y15557877D3*
D88*
X7668750Y15844373D3*
X7478750D3*
X9177123Y16939500D3*
X9367123D3*
X4779750Y12685000D3*
X4969750D3*
X3970123D3*
X4160123D3*
X3335127D3*
X3525127D3*
D86*
X2700127Y16701373D3*
Y16511373D3*
X9288250Y18209500D3*
Y18019500D3*
D88*
X7573750Y16622000D3*
X7763750D3*
X8669127Y16939500D3*
X8859127D3*
X6081500Y16844250D3*
X6271500D3*
D70*
X11987000Y17193500D3*
X11737000D3*
X11487000D3*
D68*
X12227000Y16863500D3*
X11247000D3*
D88*
X10591750Y16947000D3*
X10781750D3*
X6272000Y16590250D3*
X6082000D3*
X3287500Y18114250D3*
X3477500D3*
D86*
X5859250Y15479000D3*
Y15289000D3*
D88*
X5065500Y17320500D3*
X5255500D3*
D67*
X13950000Y14400000D3*
D66*
X14450000D3*
Y15650000D3*
X13950000D3*
D67*
X6325000Y19350000D3*
D66*
Y19850000D3*
X5075000D3*
Y19350000D3*
D67*
X4325000D3*
D66*
Y19850000D3*
X3075000D3*
Y19350000D3*
D67*
X9825000D3*
D66*
Y19850000D3*
X8575000D3*
Y19350000D3*
D67*
X11825000D3*
D66*
Y19850000D3*
X10575000D3*
Y19350000D3*
D67*
X13950000Y11900000D3*
D66*
X14450000D3*
Y13150000D3*
X13950000D3*
D18*
X11415500Y10215750D3*
D19*
Y10469750D3*
D64*
X3335127Y12415127D3*
X3525127D3*
X3430127Y12185127D3*
X7664877Y16142127D3*
X7474877D3*
X7569877Y16372127D3*
X3974250Y12418750D3*
X4164250D3*
X4069250Y12188750D3*
X4779750Y12415127D3*
X4969750D3*
X4874750Y12185127D3*
D62*
X4113000Y11732500D3*
D60*
X4367000D3*
X4621000D3*
X4875000D3*
X5129000D3*
X5383000D3*
X5637000D3*
X5891000D3*
X6145000D3*
X6399000D3*
X6653000D3*
X6907000D3*
X7161000D3*
X7415000D3*
X7669000D3*
X7923000D3*
X8177000D3*
X8431000D3*
X8685000D3*
X8939000D3*
X9193000D3*
X9447000D3*
X9701000D3*
X9955000D3*
X10209000D3*
X10463000D3*
X10717000D3*
X10971000D3*
X11225000D3*
X11479000D3*
X11733000D3*
X11987000D3*
D62*
X5065500Y8564750D3*
D60*
X5319500D3*
X5573500D3*
X5827500D3*
X6081500D3*
X6335500D3*
X6589500D3*
X6843500D3*
X7097500D3*
X7351500D3*
X7605500D3*
X7859500D3*
X8113500D3*
X8367500D3*
X8621500D3*
X8875500D3*
X9129500D3*
X9383500D3*
X9637500D3*
X9891500D3*
X10145500D3*
X10399500D3*
X10653500D3*
X10907500D3*
X11161500D3*
X11415500D3*
X11669500D3*
X11923500D3*
X12177500D3*
X12431500D3*
X12685500D3*
X12939500D3*
D62*
X5351250Y15733000D3*
D60*
Y15479000D3*
Y15225000D3*
D37*
X2065123Y14272500D3*
D38*
Y14522500D3*
Y14772500D3*
Y15022500D3*
Y15272500D3*
D19*
X6303750Y17574500D3*
X6405750Y17320500D3*
X6201750D3*
X6099750Y17574500D3*
D53*
X6852750Y17804500D3*
X5652750D3*
D43*
X2600000Y18900000D3*
D44*
Y19250000D3*
Y19600000D3*
Y19950000D3*
Y20300000D3*
D86*
X9798000Y16137377D3*
Y16327377D3*
G36*
X1700000Y4750000D2*
X15100000D1*
Y1700000D1*
X1700000D1*
Y4750000D1*
G37*
M02*
