%TF.GenerationSoftware,Novarm,DipTrace,3.3.0.1*%
%TF.CreationDate,2019-03-05T05:49:30+02:00*%
%FSLAX35Y35*%
%MOMM*%
%TF.FileFunction,Soldermask,Top*%
%TF.Part,Single*%
%ADD18R,1.7X1.7*%
%ADD19C,1.7*%
%ADD29R,2.1X2.1*%
%ADD37R,1.9X1.9*%
%ADD38C,1.9*%
%ADD43R,2.5X2.5*%
%ADD44C,2.5*%
%ADD51C,3.0*%
%ADD52C,3.1*%
%ADD53C,2.4*%
%ADD57C,1.8*%
%ADD60C,1.82*%
%ADD62R,1.82X1.82*%
%ADD66C,2.7*%
%ADD67R,2.7X2.7*%
%ADD68O,3.0X3.4*%
%ADD70C,2.2*%
%ADD71C,1.8*%
%ADD72C,2.1*%
%ADD73C,1.7*%
%ADD84R,1.8X1.8*%
%ADD91C,0.39216*%
G75*
G01*
%LPD*%
D37*
X10829877Y18090000D3*
D38*
Y17840000D3*
D37*
X6335500Y14494750D3*
D38*
X6685500D3*
D84*
X7129250Y15748877D3*
D57*
X6875250D3*
D19*
X2970000Y8945750D3*
D18*
Y9199750D3*
D38*
X9828000Y17384000D3*
X9578000D3*
X8578000D3*
X8328000D3*
X9828000Y15484000D3*
X9578000D3*
X9328000D3*
X8578000D3*
X8328000D3*
D37*
X7178000Y16484000D3*
D18*
X5383000Y12812000D3*
D19*
X5637000D3*
X5891000D3*
X6145000D3*
X6399000D3*
X6653000D3*
X6907000D3*
X7161000D3*
Y13574000D3*
X6907000D3*
X6653000D3*
X6399000D3*
X6145000D3*
X5891000D3*
X5637000D3*
X5383000D3*
D18*
X7669000Y12812000D3*
D19*
X7923000D3*
X8177000D3*
X8431000D3*
X8685000D3*
X8939000D3*
X9193000D3*
X9447000D3*
Y13574000D3*
X9193000D3*
X8939000D3*
X8685000D3*
X8431000D3*
X8177000D3*
X7923000D3*
X7669000D3*
D18*
X9955000Y12812000D3*
D19*
X10209000D3*
X10463000D3*
X10717000D3*
X10971000D3*
X11225000D3*
X11479000D3*
X11733000D3*
Y13574000D3*
X11479000D3*
X11225000D3*
X10971000D3*
X10717000D3*
X10463000D3*
X10209000D3*
X9955000D3*
D84*
X10145500Y18209500D3*
D71*
X9891500D3*
X9637500D3*
D19*
X4509873Y13208877D3*
Y13462877D3*
Y13716877D3*
Y13970877D3*
Y14224877D3*
Y14478877D3*
Y14732877D3*
Y14986877D3*
Y15240877D3*
Y15494877D3*
Y15748877D3*
Y16002877D3*
Y16256877D3*
Y16510877D3*
Y16764877D3*
Y17018877D3*
Y17272877D3*
Y17526877D3*
Y17780877D3*
Y18034877D3*
X2985873D3*
Y17780877D3*
Y17526877D3*
Y17272877D3*
Y17018877D3*
Y16764877D3*
Y16510877D3*
Y16256877D3*
Y16002877D3*
Y15748877D3*
Y15494877D3*
Y15240877D3*
Y14986877D3*
Y14732877D3*
Y14478877D3*
Y14224877D3*
Y13970877D3*
Y13716877D3*
Y13462877D3*
Y13208877D3*
D18*
X5891000Y10469750D3*
D73*
X5637050D3*
X5383050D3*
X5129050D3*
X4875050D3*
X4621050D3*
X5891000Y8945750D3*
X5637100D3*
X5383000D3*
X5129000D3*
X4875000D3*
X4621000D3*
D18*
X9701000Y10469750D3*
D73*
X9447050D3*
X9193050D3*
X8939050D3*
X8685050D3*
X8431050D3*
X9701000Y8945750D3*
X9447100D3*
X9193000D3*
X8939000D3*
X8685000D3*
X8431000D3*
D51*
X2200000Y17900000D3*
D52*
X11415450Y7133200D3*
D51*
X2200000Y11900000D3*
D52*
X2970000Y5863250D3*
D51*
X12700000Y17900000D3*
Y11900000D3*
X2200000Y10700000D3*
X14600000D3*
X2200000Y8700000D3*
X14600000D3*
X2100000Y19600000D3*
X7450000D3*
X12800000D3*
D29*
X10653500Y15161500D3*
D72*
X12653500D3*
D37*
X12250000Y9369000D3*
D38*
Y9623000D3*
Y9877000D3*
Y10131000D3*
D37*
X14150000D3*
D38*
Y9877000D3*
Y9623000D3*
Y9369000D3*
D43*
X14606250Y11591500D3*
D44*
X14352250D3*
X14098250D3*
X13844250D3*
D43*
Y13491500D3*
D44*
X14098250D3*
X14352250D3*
X14606250D3*
D43*
Y14091500D3*
D44*
X14352250D3*
X14098250D3*
X13844250D3*
D43*
Y15991500D3*
D44*
X14098250D3*
X14352250D3*
X14606250D3*
D70*
X11987000Y17193500D3*
X11737000D3*
X11487000D3*
D68*
X12227000Y16863500D3*
X11247000D3*
D67*
X13950000Y14400000D3*
D66*
X14450000D3*
Y15650000D3*
X13950000D3*
D67*
X6325000Y19350000D3*
D66*
Y19850000D3*
X5075000D3*
Y19350000D3*
D67*
X4325000D3*
D66*
Y19850000D3*
X3075000D3*
Y19350000D3*
D67*
X9825000D3*
D66*
Y19850000D3*
X8575000D3*
Y19350000D3*
D67*
X11825000D3*
D66*
Y19850000D3*
X10575000D3*
Y19350000D3*
D67*
X13950000Y11900000D3*
D66*
X14450000D3*
Y13150000D3*
X13950000D3*
D18*
X11415500Y10215750D3*
D19*
Y10469750D3*
D62*
X4113000Y11732500D3*
D60*
X4367000D3*
X4621000D3*
X4875000D3*
X5129000D3*
X5383000D3*
X5637000D3*
X5891000D3*
X6145000D3*
X6399000D3*
X6653000D3*
X6907000D3*
X7161000D3*
X7415000D3*
X7669000D3*
X7923000D3*
X8177000D3*
X8431000D3*
X8685000D3*
X8939000D3*
X9193000D3*
X9447000D3*
X9701000D3*
X9955000D3*
X10209000D3*
X10463000D3*
X10717000D3*
X10971000D3*
X11225000D3*
X11479000D3*
X11733000D3*
X11987000D3*
D62*
X5065500Y8564750D3*
D60*
X5319500D3*
X5573500D3*
X5827500D3*
X6081500D3*
X6335500D3*
X6589500D3*
X6843500D3*
X7097500D3*
X7351500D3*
X7605500D3*
X7859500D3*
X8113500D3*
X8367500D3*
X8621500D3*
X8875500D3*
X9129500D3*
X9383500D3*
X9637500D3*
X9891500D3*
X10145500D3*
X10399500D3*
X10653500D3*
X10907500D3*
X11161500D3*
X11415500D3*
X11669500D3*
X11923500D3*
X12177500D3*
X12431500D3*
X12685500D3*
X12939500D3*
D62*
X5351250Y15733000D3*
D60*
Y15479000D3*
Y15225000D3*
D37*
X2065123Y14272500D3*
D38*
Y14522500D3*
Y14772500D3*
Y15022500D3*
Y15272500D3*
D19*
X6303750Y17574500D3*
X6405750Y17320500D3*
X6201750D3*
X6099750Y17574500D3*
D53*
X6852750Y17804500D3*
X5652750D3*
D43*
X2600000Y18900000D3*
D44*
Y19250000D3*
Y19600000D3*
Y19950000D3*
Y20300000D3*
G36*
X1700000Y8000000D2*
X15100000D1*
Y4950000D1*
X1700000D1*
Y8000000D1*
G37*
X7605501Y18238207D2*
D91*
Y17982987D1*
X7690574D1*
X7727074Y17995341D1*
X7751501Y18019487D1*
X7763574Y18043914D1*
X7775647Y18080133D1*
Y18141060D1*
X7763574Y18177560D1*
X7751501Y18201707D1*
X7727074Y18226133D1*
X7690574Y18238207D1*
X7605501D1*
X7854079D2*
X7866152Y18226133D1*
X7878506Y18238207D1*
X7866152Y18250560D1*
X7854079Y18238207D1*
X7866152Y18153133D2*
Y17982987D1*
X8151229D2*
Y18238207D1*
X8054083Y17982987D1*
X7956937Y18238207D1*
Y17982987D1*
X8290307Y18153133D2*
X8266161Y18141060D1*
X8241734Y18116633D1*
X8229661Y18080133D1*
Y18055987D1*
X8241734Y18019487D1*
X8266161Y17995341D1*
X8290307Y17982987D1*
X8326807D1*
X8351234Y17995341D1*
X8375380Y18019487D1*
X8387734Y18055987D1*
Y18080133D1*
X8375380Y18116633D1*
X8351234Y18141060D1*
X8326807Y18153133D1*
X8290307D1*
X8526811D2*
X8502665Y18141060D1*
X8478238Y18116633D1*
X8466165Y18080133D1*
Y18055987D1*
X8478238Y18019487D1*
X8502665Y17995341D1*
X8526811Y17982987D1*
X8563311D1*
X8587738Y17995341D1*
X8611884Y18019487D1*
X8624238Y18055987D1*
Y18080133D1*
X8611884Y18116633D1*
X8587738Y18141060D1*
X8563311Y18153133D1*
X8526811D1*
X8702670D2*
Y17982987D1*
Y18104560D2*
X8739170Y18141060D1*
X8763597Y18153133D1*
X8799816D1*
X8824243Y18141060D1*
X8836316Y18104560D1*
Y17982987D1*
X8128417Y17888957D2*
X7970625D1*
Y17633737D1*
X8128417D1*
X7970625Y17767383D2*
X8067771D1*
X8206848Y17888957D2*
Y17633737D1*
X8285280Y17730883D2*
X8430999D1*
Y17755310D1*
X8418926Y17779737D1*
X8406853Y17791810D1*
X8382426Y17803883D1*
X8345926D1*
X8321780Y17791810D1*
X8297353Y17767383D1*
X8285280Y17730883D1*
Y17706737D1*
X8297353Y17670237D1*
X8321780Y17646091D1*
X8345926Y17633737D1*
X8382426D1*
X8406853Y17646091D1*
X8430999Y17670237D1*
X8655430Y17767383D2*
X8631003Y17791810D1*
X8606576Y17803883D1*
X8570357D1*
X8545930Y17791810D1*
X8521784Y17767383D1*
X8509430Y17730883D1*
Y17706737D1*
X8521784Y17670237D1*
X8545930Y17646091D1*
X8570357Y17633737D1*
X8606576D1*
X8631003Y17646091D1*
X8655430Y17670237D1*
X8770362Y17888957D2*
Y17682310D1*
X8782435Y17646091D1*
X8806862Y17633737D1*
X8831008D1*
X8733862Y17803883D2*
X8818935D1*
X8909439D2*
Y17633737D1*
Y17730883D2*
X8921793Y17767383D1*
X8945939Y17791810D1*
X8970366Y17803883D1*
X9006866D1*
X9145944D2*
X9121797Y17791810D1*
X9097370Y17767383D1*
X9085297Y17730883D1*
Y17706737D1*
X9097370Y17670237D1*
X9121797Y17646091D1*
X9145944Y17633737D1*
X9182444D1*
X9206870Y17646091D1*
X9231017Y17670237D1*
X9243370Y17706737D1*
Y17730883D1*
X9231017Y17767383D1*
X9206870Y17791810D1*
X9182444Y17803883D1*
X9145944D1*
X9321802D2*
Y17633737D1*
Y17755310D2*
X9358302Y17791810D1*
X9382729Y17803883D1*
X9418948D1*
X9443375Y17791810D1*
X9455448Y17755310D1*
Y17633737D1*
X9533879Y17888957D2*
X9545952Y17876883D1*
X9558306Y17888957D1*
X9545952Y17901310D1*
X9533879Y17888957D1*
X9545952Y17803883D2*
Y17633737D1*
X9782738Y17767383D2*
X9758311Y17791810D1*
X9733884Y17803883D1*
X9697665D1*
X9673238Y17791810D1*
X9649091Y17767383D1*
X9636738Y17730883D1*
Y17706737D1*
X9649091Y17670237D1*
X9673238Y17646091D1*
X9697665Y17633737D1*
X9733884D1*
X9758311Y17646091D1*
X9782738Y17670237D1*
X9994815Y17767383D2*
X9982742Y17791810D1*
X9946242Y17803883D1*
X9909742D1*
X9873242Y17791810D1*
X9861169Y17767383D1*
X9873242Y17743237D1*
X9897669Y17730883D1*
X9958315Y17718810D1*
X9982742Y17706737D1*
X9994815Y17682310D1*
Y17670237D1*
X9982742Y17646091D1*
X9946242Y17633737D1*
X9909742D1*
X9873242Y17646091D1*
X9861169Y17670237D1*
M02*
