%TF.GenerationSoftware,Novarm,DipTrace,3.3.0.1*%
%TF.CreationDate,2019-03-05T05:49:10+02:00*%
%FSLAX35Y35*%
%MOMM*%
%TF.FileFunction,Legend,Top*%
%TF.Part,Single*%
%ADD10C,0.25*%
%ADD36O,0.99994X0.9981*%
%ADD90C,0.15686*%
%ADD92C,0.19608*%
%ADD93C,0.31373*%
G75*
G01*
%LPD*%
X11068000Y18332125D2*
D10*
X10496500D1*
Y17586002D1*
X11068000D1*
Y18332125D1*
X11004506D2*
Y17586002D1*
X6113588Y14491623D2*
X6114563Y14519526D1*
X6117481Y14547293D1*
X6122330Y14574788D1*
X6129084Y14601878D1*
X6137712Y14628431D1*
X6148172Y14654318D1*
X6160411Y14679412D1*
X6174372Y14703591D1*
X6189985Y14726737D1*
X6207175Y14748738D1*
X6225857Y14769487D1*
X6245942Y14788881D1*
X6267330Y14806828D1*
X6289919Y14823238D1*
X6313597Y14838033D1*
X6338250Y14851141D1*
X6363757Y14862497D1*
X6389994Y14872046D1*
X6416833Y14879742D1*
X6444143Y14885546D1*
X6471793Y14889432D1*
X6499645Y14891380D1*
X6527566D1*
X6555419Y14889432D1*
X6583068Y14885546D1*
X6610379Y14879742D1*
X6637218Y14872046D1*
X6663455Y14862497D1*
X6688962Y14851141D1*
X6713615Y14838033D1*
X6737293Y14823238D1*
X6759881Y14806828D1*
X6781270Y14788881D1*
X6801354Y14769487D1*
X6820037Y14748738D1*
X6837227Y14726737D1*
X6852840Y14703591D1*
X6866800Y14679412D1*
X6879040Y14654318D1*
X6889499Y14628431D1*
X6898127Y14601878D1*
X6904882Y14574788D1*
X6909730Y14547293D1*
X6912649Y14519526D1*
X6913623Y14491623D1*
X6912649Y14463721D1*
X6909730Y14435954D1*
X6904882Y14408459D1*
X6898127Y14381368D1*
X6889499Y14354815D1*
X6879040Y14328929D1*
X6866800Y14303835D1*
X6852840Y14279656D1*
X6837227Y14256509D1*
X6820037Y14234508D1*
X6801354Y14213760D1*
X6781270Y14194365D1*
X6759881Y14176419D1*
X6737293Y14160008D1*
X6713615Y14145213D1*
X6688962Y14132106D1*
X6663455Y14120750D1*
X6637218Y14111201D1*
X6610379Y14103505D1*
X6583068Y14097700D1*
X6555419Y14093815D1*
X6527566Y14091867D1*
X6499645D1*
X6471793Y14093815D1*
X6444143Y14097700D1*
X6416833Y14103505D1*
X6389994Y14111201D1*
X6363757Y14120750D1*
X6338250Y14132106D1*
X6313597Y14145213D1*
X6289919Y14160008D1*
X6267330Y14176419D1*
X6245942Y14194365D1*
X6225857Y14213760D1*
X6207175Y14234508D1*
X6189985Y14256509D1*
X6174372Y14279656D1*
X6160411Y14303835D1*
X6148172Y14328929D1*
X6137712Y14354815D1*
X6129084Y14381368D1*
X6122330Y14408459D1*
X6117481Y14435954D1*
X6114563Y14463721D1*
X6113588Y14491623D1*
X7332148Y15778899D2*
Y15718854D1*
X7362168Y15748877D2*
X7302190D1*
X6748265D2*
X6748884Y15766595D1*
X6750736Y15784227D1*
X6753814Y15801686D1*
X6758101Y15818889D1*
X6763578Y15835750D1*
X6770217Y15852188D1*
X6777986Y15868122D1*
X6786847Y15883476D1*
X6796758Y15898174D1*
X6807669Y15912145D1*
X6819528Y15925320D1*
X6832276Y15937635D1*
X6845853Y15949031D1*
X6860191Y15959452D1*
X6875220Y15968847D1*
X6890868Y15977170D1*
X6907059Y15984381D1*
X6923713Y15990445D1*
X6940749Y15995332D1*
X6958084Y15999018D1*
X6975635Y16001485D1*
X6993314Y16002722D1*
X7011037D1*
X7028716Y16001485D1*
X7046267Y15999018D1*
X7063602Y15995332D1*
X7080638Y15990445D1*
X7097292Y15984381D1*
X7113482Y15977170D1*
X7129131Y15968847D1*
X7144160Y15959452D1*
X7158498Y15949031D1*
X7172075Y15937635D1*
X7184823Y15925320D1*
X7196682Y15912145D1*
X7207593Y15898174D1*
X7217504Y15883476D1*
X7226365Y15868122D1*
X7234134Y15852188D1*
X7240773Y15835750D1*
X7246250Y15818889D1*
X7250537Y15801686D1*
X7253615Y15784227D1*
X7255467Y15766595D1*
X7256086Y15748877D1*
X7255467Y15731159D1*
X7253615Y15713527D1*
X7250537Y15696067D1*
X7246250Y15678865D1*
X7240773Y15662004D1*
X7234134Y15645566D1*
X7226365Y15629631D1*
X7217504Y15614277D1*
X7207593Y15599579D1*
X7196682Y15585609D1*
X7184823Y15572433D1*
X7172075Y15560118D1*
X7158498Y15548722D1*
X7144160Y15538301D1*
X7129131Y15528906D1*
X7113482Y15520583D1*
X7097292Y15513372D1*
X7080638Y15507308D1*
X7063602Y15502422D1*
X7046267Y15498735D1*
X7028716Y15496268D1*
X7011037Y15495031D1*
X6993314D1*
X6975635Y15496268D1*
X6958084Y15498735D1*
X6940749Y15502422D1*
X6923713Y15507308D1*
X6907059Y15513372D1*
X6890868Y15520583D1*
X6875220Y15528906D1*
X6860191Y15538301D1*
X6845853Y15548722D1*
X6832276Y15560118D1*
X6819528Y15572433D1*
X6807669Y15585609D1*
X6796758Y15599579D1*
X6786847Y15614277D1*
X6777986Y15629631D1*
X6770217Y15645566D1*
X6763578Y15662004D1*
X6758101Y15678865D1*
X6753814Y15696067D1*
X6750736Y15713527D1*
X6748884Y15731159D1*
X6748265Y15748877D1*
X3091920Y9175770D2*
G02X3089040Y8966902I-119726J-102803D01*
G01*
X2848080Y9175770D2*
G03X2850960Y8966902I119726J-102803D01*
G01*
X8177895Y17484000D2*
X9977985D1*
Y15384000D1*
X8177895D1*
Y17484000D1*
X5252000Y13453011D2*
X7292000D1*
Y12932989D2*
Y13453011D1*
X5252000Y12932989D2*
X7292000D1*
X5252000D2*
Y13132990D1*
Y13453011D2*
Y13253010D1*
Y13132990D2*
G03X5252000Y13253010I-34J60010D01*
G01*
X7538000Y13453011D2*
X9578000D1*
Y12932989D2*
Y13453011D1*
X7538000Y12932989D2*
X9578000D1*
X7538000D2*
Y13132990D1*
Y13453011D2*
Y13253010D1*
Y13132990D2*
G03X7538000Y13253010I-34J60010D01*
G01*
X9824000Y13453011D2*
X11864000D1*
Y12932989D2*
Y13453011D1*
X9824000Y12932989D2*
X11864000D1*
X9824000D2*
Y13132990D1*
Y13453011D2*
Y13253010D1*
Y13132990D2*
G03X9824000Y13253010I-34J60010D01*
G01*
X9691501Y18369500D2*
X9681548Y18339512D1*
X9691501Y18059498D2*
G03X10091499Y18059498I199999J126821D01*
G01*
Y18369500D2*
X10101452Y18339512D1*
X10091499Y18369500D2*
X9691501D1*
X4890873Y12891377D2*
X2590873D1*
Y18391377D1*
X4890873D1*
Y12891377D1*
X4223413Y17922227D2*
X3223373D1*
Y18372127D1*
X4223413D1*
Y17922227D1*
X7129302Y8755250D2*
X3366925D1*
Y10660250D1*
X7129302D1*
Y8755250D1*
X6637183Y9263313D2*
X6748173Y10152187D1*
X6303460D1*
X6684965Y9691938D2*
X6256054D1*
X6637183Y9263313D2*
X6192470D1*
X6192846D2*
X6303836Y10152187D1*
X6113460Y10120563D2*
X6113576Y10123886D1*
X6113923Y10127192D1*
X6114500Y10130465D1*
X6115304Y10133691D1*
X6116330Y10136852D1*
X6117575Y10139934D1*
X6119031Y10142922D1*
X6120692Y10145801D1*
X6122550Y10148557D1*
X6124595Y10151176D1*
X6126818Y10153647D1*
X6129207Y10155956D1*
X6131752Y10158093D1*
X6134440Y10160046D1*
X6137257Y10161808D1*
X6140190Y10163369D1*
X6143225Y10164721D1*
X6146347Y10165858D1*
X6149540Y10166774D1*
X6152789Y10167465D1*
X6156079Y10167928D1*
X6159393Y10168159D1*
X6162715D1*
X6166029Y10167928D1*
X6169319Y10167465D1*
X6172568Y10166774D1*
X6175761Y10165858D1*
X6178883Y10164721D1*
X6181918Y10163369D1*
X6184851Y10161808D1*
X6187668Y10160046D1*
X6190356Y10158093D1*
X6192901Y10155956D1*
X6195290Y10153647D1*
X6197513Y10151176D1*
X6199558Y10148557D1*
X6201416Y10145801D1*
X6203077Y10142922D1*
X6204533Y10139934D1*
X6205778Y10136852D1*
X6206804Y10133691D1*
X6207608Y10130465D1*
X6208185Y10127192D1*
X6208532Y10123886D1*
X6208648Y10120563D1*
X6208532Y10117241D1*
X6208185Y10113935D1*
X6207608Y10110662D1*
X6206804Y10107436D1*
X6205778Y10104275D1*
X6204533Y10101193D1*
X6203077Y10098205D1*
X6201416Y10095326D1*
X6199558Y10092570D1*
X6197513Y10089951D1*
X6195290Y10087480D1*
X6192901Y10085171D1*
X6190356Y10083034D1*
X6187668Y10081081D1*
X6184851Y10079319D1*
X6181918Y10077758D1*
X6178883Y10076406D1*
X6175761Y10075269D1*
X6172568Y10074353D1*
X6169319Y10073662D1*
X6166029Y10073199D1*
X6162715Y10072968D1*
X6159393D1*
X6156079Y10073199D1*
X6152789Y10073662D1*
X6149540Y10074353D1*
X6146347Y10075269D1*
X6143225Y10076406D1*
X6140190Y10077758D1*
X6137257Y10079319D1*
X6134440Y10081081D1*
X6131752Y10083034D1*
X6129207Y10085171D1*
X6126818Y10087480D1*
X6124595Y10089951D1*
X6122550Y10092570D1*
X6120692Y10095326D1*
X6119031Y10098205D1*
X6117575Y10101193D1*
X6116330Y10104275D1*
X6115304Y10107436D1*
X6114500Y10110662D1*
X6113923Y10113935D1*
X6113576Y10117241D1*
X6113460Y10120563D1*
X5430589Y9263313D2*
X5541955Y10152187D1*
X5096866D1*
X5478371Y9691938D2*
X5049836D1*
X5430589Y9263313D2*
X4985876D1*
X4986252D2*
X5097242Y10152187D1*
X4906866Y10120563D2*
X4906982Y10123886D1*
X4907329Y10127192D1*
X4907906Y10130465D1*
X4908709Y10133691D1*
X4909736Y10136852D1*
X4910980Y10139934D1*
X4912437Y10142922D1*
X4914098Y10145801D1*
X4915955Y10148557D1*
X4918001Y10151176D1*
X4920224Y10153647D1*
X4922613Y10155956D1*
X4925158Y10158093D1*
X4927846Y10160046D1*
X4930663Y10161808D1*
X4933596Y10163369D1*
X4936631Y10164721D1*
X4939752Y10165858D1*
X4942946Y10166774D1*
X4946195Y10167465D1*
X4949485Y10167928D1*
X4952799Y10168159D1*
X4956121D1*
X4959435Y10167928D1*
X4962724Y10167465D1*
X4965974Y10166774D1*
X4969167Y10165858D1*
X4972289Y10164721D1*
X4975324Y10163369D1*
X4978257Y10161808D1*
X4981074Y10160046D1*
X4983762Y10158093D1*
X4986306Y10155956D1*
X4988696Y10153647D1*
X4990919Y10151176D1*
X4992964Y10148557D1*
X4994822Y10145801D1*
X4996483Y10142922D1*
X4997939Y10139934D1*
X4999184Y10136852D1*
X5000210Y10133691D1*
X5001014Y10130465D1*
X5001591Y10127192D1*
X5001938Y10123886D1*
X5002054Y10120563D1*
X5001938Y10117241D1*
X5001591Y10113935D1*
X5001014Y10110662D1*
X5000210Y10107436D1*
X4999184Y10104275D1*
X4997939Y10101193D1*
X4996483Y10098205D1*
X4994822Y10095326D1*
X4992964Y10092570D1*
X4990919Y10089951D1*
X4988696Y10087480D1*
X4986306Y10085171D1*
X4983762Y10083034D1*
X4981074Y10081081D1*
X4978257Y10079319D1*
X4975324Y10077758D1*
X4972289Y10076406D1*
X4969167Y10075269D1*
X4965974Y10074353D1*
X4962724Y10073662D1*
X4959435Y10073199D1*
X4956121Y10072968D1*
X4952799D1*
X4949485Y10073199D1*
X4946195Y10073662D1*
X4942946Y10074353D1*
X4939752Y10075269D1*
X4936631Y10076406D1*
X4933596Y10077758D1*
X4930663Y10079319D1*
X4927846Y10081081D1*
X4925158Y10083034D1*
X4922613Y10085171D1*
X4920224Y10087480D1*
X4918001Y10089951D1*
X4915955Y10092570D1*
X4914098Y10095326D1*
X4912437Y10098205D1*
X4910980Y10101193D1*
X4909736Y10104275D1*
X4908709Y10107436D1*
X4907906Y10110662D1*
X4907329Y10113935D1*
X4906982Y10117241D1*
X4906866Y10120563D1*
X4255975Y9263313D2*
X4366965Y10152187D1*
X3922252D1*
X4303381Y9691938D2*
X3874846D1*
X4255975Y9263313D2*
X3811262D1*
X3922628Y10152187D1*
X3731876Y10120563D2*
X3731992Y10123886D1*
X3732341Y10127192D1*
X3732920Y10130465D1*
X3733727Y10133691D1*
X3734757Y10136852D1*
X3736007Y10139934D1*
X3737469Y10142922D1*
X3739136Y10145801D1*
X3741001Y10148557D1*
X3743054Y10151176D1*
X3745286Y10153647D1*
X3747685Y10155956D1*
X3750240Y10158093D1*
X3752938Y10160046D1*
X3755767Y10161808D1*
X3758711Y10163369D1*
X3761758Y10164721D1*
X3764892Y10165858D1*
X3768098Y10166774D1*
X3771360Y10167465D1*
X3774663Y10167928D1*
X3777990Y10168159D1*
X3781325D1*
X3784652Y10167928D1*
X3787955Y10167465D1*
X3791217Y10166774D1*
X3794423Y10165858D1*
X3797557Y10164721D1*
X3800604Y10163369D1*
X3803549Y10161808D1*
X3806377Y10160046D1*
X3809075Y10158093D1*
X3811630Y10155956D1*
X3814029Y10153647D1*
X3816261Y10151176D1*
X3818314Y10148557D1*
X3820179Y10145801D1*
X3821847Y10142922D1*
X3823309Y10139934D1*
X3824558Y10136852D1*
X3825589Y10133691D1*
X3826396Y10130465D1*
X3826975Y10127192D1*
X3827324Y10123886D1*
X3827440Y10120563D1*
X3827324Y10117241D1*
X3826975Y10113935D1*
X3826396Y10110662D1*
X3825589Y10107436D1*
X3824558Y10104275D1*
X3823309Y10101193D1*
X3821847Y10098205D1*
X3820179Y10095326D1*
X3818314Y10092570D1*
X3816261Y10089951D1*
X3814029Y10087480D1*
X3811630Y10085171D1*
X3809075Y10083034D1*
X3806377Y10081081D1*
X3803549Y10079319D1*
X3800604Y10077758D1*
X3797557Y10076406D1*
X3794423Y10075269D1*
X3791217Y10074353D1*
X3787955Y10073662D1*
X3784652Y10073199D1*
X3781325Y10072968D1*
X3777990D1*
X3774663Y10073199D1*
X3771360Y10073662D1*
X3768098Y10074353D1*
X3764892Y10075269D1*
X3761758Y10076406D1*
X3758711Y10077758D1*
X3755767Y10079319D1*
X3752938Y10081081D1*
X3750240Y10083034D1*
X3747685Y10085171D1*
X3745286Y10087480D1*
X3743054Y10089951D1*
X3741001Y10092570D1*
X3739136Y10095326D1*
X3737469Y10098205D1*
X3736007Y10101193D1*
X3734757Y10104275D1*
X3733727Y10107436D1*
X3732920Y10110662D1*
X3732341Y10113935D1*
X3731992Y10117241D1*
X3731876Y10120563D1*
X10939302Y8755250D2*
X7176925D1*
Y10660250D1*
X10939302D1*
Y8755250D1*
X10447183Y9263313D2*
X10558173Y10152187D1*
X10113460D1*
X10494965Y9691938D2*
X10066054D1*
X10447183Y9263313D2*
X10002470D1*
X10002846D2*
X10113836Y10152187D1*
X9923460Y10120563D2*
X9923576Y10123886D1*
X9923923Y10127192D1*
X9924500Y10130465D1*
X9925304Y10133691D1*
X9926330Y10136852D1*
X9927575Y10139934D1*
X9929031Y10142922D1*
X9930692Y10145801D1*
X9932550Y10148557D1*
X9934595Y10151176D1*
X9936818Y10153647D1*
X9939207Y10155956D1*
X9941752Y10158093D1*
X9944440Y10160046D1*
X9947257Y10161808D1*
X9950190Y10163369D1*
X9953225Y10164721D1*
X9956347Y10165858D1*
X9959540Y10166774D1*
X9962789Y10167465D1*
X9966079Y10167928D1*
X9969393Y10168159D1*
X9972715D1*
X9976029Y10167928D1*
X9979319Y10167465D1*
X9982568Y10166774D1*
X9985761Y10165858D1*
X9988883Y10164721D1*
X9991918Y10163369D1*
X9994851Y10161808D1*
X9997668Y10160046D1*
X10000356Y10158093D1*
X10002901Y10155956D1*
X10005290Y10153647D1*
X10007513Y10151176D1*
X10009558Y10148557D1*
X10011416Y10145801D1*
X10013077Y10142922D1*
X10014533Y10139934D1*
X10015778Y10136852D1*
X10016804Y10133691D1*
X10017608Y10130465D1*
X10018185Y10127192D1*
X10018532Y10123886D1*
X10018648Y10120563D1*
X10018532Y10117241D1*
X10018185Y10113935D1*
X10017608Y10110662D1*
X10016804Y10107436D1*
X10015778Y10104275D1*
X10014533Y10101193D1*
X10013077Y10098205D1*
X10011416Y10095326D1*
X10009558Y10092570D1*
X10007513Y10089951D1*
X10005290Y10087480D1*
X10002901Y10085171D1*
X10000356Y10083034D1*
X9997668Y10081081D1*
X9994851Y10079319D1*
X9991918Y10077758D1*
X9988883Y10076406D1*
X9985761Y10075269D1*
X9982568Y10074353D1*
X9979319Y10073662D1*
X9976029Y10073199D1*
X9972715Y10072968D1*
X9969393D1*
X9966079Y10073199D1*
X9962789Y10073662D1*
X9959540Y10074353D1*
X9956347Y10075269D1*
X9953225Y10076406D1*
X9950190Y10077758D1*
X9947257Y10079319D1*
X9944440Y10081081D1*
X9941752Y10083034D1*
X9939207Y10085171D1*
X9936818Y10087480D1*
X9934595Y10089951D1*
X9932550Y10092570D1*
X9930692Y10095326D1*
X9929031Y10098205D1*
X9927575Y10101193D1*
X9926330Y10104275D1*
X9925304Y10107436D1*
X9924500Y10110662D1*
X9923923Y10113935D1*
X9923576Y10117241D1*
X9923460Y10120563D1*
X9240589Y9263313D2*
X9351955Y10152187D1*
X8906866D1*
X9288371Y9691938D2*
X8859836D1*
X9240589Y9263313D2*
X8795876D1*
X8796252D2*
X8907242Y10152187D1*
X8716866Y10120563D2*
X8716982Y10123886D1*
X8717329Y10127192D1*
X8717906Y10130465D1*
X8718709Y10133691D1*
X8719736Y10136852D1*
X8720980Y10139934D1*
X8722437Y10142922D1*
X8724098Y10145801D1*
X8725955Y10148557D1*
X8728001Y10151176D1*
X8730224Y10153647D1*
X8732613Y10155956D1*
X8735158Y10158093D1*
X8737846Y10160046D1*
X8740663Y10161808D1*
X8743596Y10163369D1*
X8746631Y10164721D1*
X8749752Y10165858D1*
X8752946Y10166774D1*
X8756195Y10167465D1*
X8759485Y10167928D1*
X8762799Y10168159D1*
X8766121D1*
X8769435Y10167928D1*
X8772724Y10167465D1*
X8775974Y10166774D1*
X8779167Y10165858D1*
X8782289Y10164721D1*
X8785324Y10163369D1*
X8788257Y10161808D1*
X8791074Y10160046D1*
X8793762Y10158093D1*
X8796306Y10155956D1*
X8798696Y10153647D1*
X8800919Y10151176D1*
X8802964Y10148557D1*
X8804822Y10145801D1*
X8806483Y10142922D1*
X8807939Y10139934D1*
X8809184Y10136852D1*
X8810210Y10133691D1*
X8811014Y10130465D1*
X8811591Y10127192D1*
X8811938Y10123886D1*
X8812054Y10120563D1*
X8811938Y10117241D1*
X8811591Y10113935D1*
X8811014Y10110662D1*
X8810210Y10107436D1*
X8809184Y10104275D1*
X8807939Y10101193D1*
X8806483Y10098205D1*
X8804822Y10095326D1*
X8802964Y10092570D1*
X8800919Y10089951D1*
X8798696Y10087480D1*
X8796306Y10085171D1*
X8793762Y10083034D1*
X8791074Y10081081D1*
X8788257Y10079319D1*
X8785324Y10077758D1*
X8782289Y10076406D1*
X8779167Y10075269D1*
X8775974Y10074353D1*
X8772724Y10073662D1*
X8769435Y10073199D1*
X8766121Y10072968D1*
X8762799D1*
X8759485Y10073199D1*
X8756195Y10073662D1*
X8752946Y10074353D1*
X8749752Y10075269D1*
X8746631Y10076406D1*
X8743596Y10077758D1*
X8740663Y10079319D1*
X8737846Y10081081D1*
X8735158Y10083034D1*
X8732613Y10085171D1*
X8730224Y10087480D1*
X8728001Y10089951D1*
X8725955Y10092570D1*
X8724098Y10095326D1*
X8722437Y10098205D1*
X8720980Y10101193D1*
X8719736Y10104275D1*
X8718709Y10107436D1*
X8717906Y10110662D1*
X8717329Y10113935D1*
X8716982Y10117241D1*
X8716866Y10120563D1*
X8065975Y9263313D2*
X8176965Y10152187D1*
X7732252D1*
X8113381Y9691938D2*
X7684846D1*
X8065975Y9263313D2*
X7621262D1*
X7732628Y10152187D1*
X7541876Y10120563D2*
X7541992Y10123886D1*
X7542341Y10127192D1*
X7542920Y10130465D1*
X7543727Y10133691D1*
X7544757Y10136852D1*
X7546007Y10139934D1*
X7547469Y10142922D1*
X7549136Y10145801D1*
X7551001Y10148557D1*
X7553054Y10151176D1*
X7555286Y10153647D1*
X7557685Y10155956D1*
X7560240Y10158093D1*
X7562938Y10160046D1*
X7565767Y10161808D1*
X7568711Y10163369D1*
X7571758Y10164721D1*
X7574892Y10165858D1*
X7578098Y10166774D1*
X7581360Y10167465D1*
X7584663Y10167928D1*
X7587990Y10168159D1*
X7591325D1*
X7594652Y10167928D1*
X7597955Y10167465D1*
X7601217Y10166774D1*
X7604423Y10165858D1*
X7607557Y10164721D1*
X7610604Y10163369D1*
X7613549Y10161808D1*
X7616377Y10160046D1*
X7619075Y10158093D1*
X7621630Y10155956D1*
X7624029Y10153647D1*
X7626261Y10151176D1*
X7628314Y10148557D1*
X7630179Y10145801D1*
X7631847Y10142922D1*
X7633309Y10139934D1*
X7634558Y10136852D1*
X7635589Y10133691D1*
X7636396Y10130465D1*
X7636975Y10127192D1*
X7637324Y10123886D1*
X7637440Y10120563D1*
X7637324Y10117241D1*
X7636975Y10113935D1*
X7636396Y10110662D1*
X7635589Y10107436D1*
X7634558Y10104275D1*
X7633309Y10101193D1*
X7631847Y10098205D1*
X7630179Y10095326D1*
X7628314Y10092570D1*
X7626261Y10089951D1*
X7624029Y10087480D1*
X7621630Y10085171D1*
X7619075Y10083034D1*
X7616377Y10081081D1*
X7613549Y10079319D1*
X7610604Y10077758D1*
X7607557Y10076406D1*
X7604423Y10075269D1*
X7601217Y10074353D1*
X7597955Y10073662D1*
X7594652Y10073199D1*
X7591325Y10072968D1*
X7587990D1*
X7584663Y10073199D1*
X7581360Y10073662D1*
X7578098Y10074353D1*
X7574892Y10075269D1*
X7571758Y10076406D1*
X7568711Y10077758D1*
X7565767Y10079319D1*
X7562938Y10081081D1*
X7560240Y10083034D1*
X7557685Y10085171D1*
X7555286Y10087480D1*
X7553054Y10089951D1*
X7551001Y10092570D1*
X7549136Y10095326D1*
X7547469Y10098205D1*
X7546007Y10101193D1*
X7544757Y10104275D1*
X7543727Y10107436D1*
X7542920Y10110662D1*
X7542341Y10113935D1*
X7541992Y10117241D1*
X7541876Y10120563D1*
D36*
X10313497Y15161500D3*
X10403376Y15461390D2*
D10*
Y14861610D1*
Y15461390D2*
X10893520D1*
X10403376Y14861610D2*
X10893520D1*
Y15461390D2*
G02X10893520Y14861610I1110093J-299890D01*
G01*
X12122987Y9241955D2*
X12377000D1*
Y10258045D1*
X12122987D1*
Y9241955D1*
X14277013Y10258045D2*
X14023000D1*
Y9241955D1*
X14277013D1*
Y10258045D1*
X14733295Y11464487D2*
X13717205D1*
Y11718500D1*
X14733295D1*
Y11464487D1*
X13717205Y13618513D2*
X14733295D1*
Y13364500D1*
X13717205D1*
Y13618513D1*
X14733295Y13964487D2*
X13717205D1*
Y14218500D1*
X14733295D1*
Y13964487D1*
X13717205Y16118513D2*
X14733295D1*
Y15864500D1*
X13717205D1*
Y16118513D1*
X12227014Y17043524D2*
Y17543540D1*
X11256940D1*
Y17043524D1*
Y16673396D2*
Y16623500D1*
X12227014D1*
Y16673396D1*
X13600000Y14425000D2*
Y15625000D1*
X14800000Y14425000D2*
Y15625000D1*
X14610040D1*
X14800000Y14425000D2*
X14614960D1*
X13780000D2*
X13600000D1*
X13800040Y15625000D2*
X13600000D1*
X14110000D2*
X14284960D1*
X14115040Y14425000D2*
X14284960D1*
X13999960Y14825050D2*
X14400040D1*
Y15224950D1*
X13999960D1*
Y14825050D1*
X14100040Y15025000D2*
X14100283Y15031979D1*
X14101013Y15038924D1*
X14102224Y15045802D1*
X14103912Y15052578D1*
X14106068Y15059219D1*
X14108682Y15065694D1*
X14111741Y15071971D1*
X14115229Y15078018D1*
X14119131Y15083808D1*
X14123426Y15089311D1*
X14128095Y15094501D1*
X14133114Y15099352D1*
X14138458Y15103840D1*
X14144103Y15107945D1*
X14150020Y15111646D1*
X14156180Y15114924D1*
X14162554Y15117765D1*
X14169111Y15120153D1*
X14175817Y15122078D1*
X14182642Y15123530D1*
X14189551Y15124502D1*
X14196511Y15124989D1*
X14203489D1*
X14210449Y15124502D1*
X14217358Y15123530D1*
X14224183Y15122078D1*
X14230889Y15120153D1*
X14237446Y15117765D1*
X14243820Y15114924D1*
X14249980Y15111646D1*
X14255897Y15107945D1*
X14261542Y15103840D1*
X14266886Y15099352D1*
X14271905Y15094501D1*
X14276574Y15089311D1*
X14280869Y15083808D1*
X14284771Y15078018D1*
X14288259Y15071971D1*
X14291318Y15065694D1*
X14293932Y15059219D1*
X14296088Y15052578D1*
X14297776Y15045802D1*
X14298987Y15038924D1*
X14299717Y15031979D1*
X14299960Y15025000D1*
X14299717Y15018021D1*
X14298987Y15011076D1*
X14297776Y15004198D1*
X14296088Y14997422D1*
X14293932Y14990781D1*
X14291318Y14984306D1*
X14288259Y14978029D1*
X14284771Y14971982D1*
X14280869Y14966192D1*
X14276574Y14960689D1*
X14271905Y14955499D1*
X14266886Y14950648D1*
X14261542Y14946160D1*
X14255897Y14942055D1*
X14249980Y14938354D1*
X14243820Y14935076D1*
X14237446Y14932235D1*
X14230889Y14929847D1*
X14224183Y14927922D1*
X14217358Y14926470D1*
X14210449Y14925498D1*
X14203489Y14925011D1*
X14196511D1*
X14189551Y14925498D1*
X14182642Y14926470D1*
X14175817Y14927922D1*
X14169111Y14929847D1*
X14162554Y14932235D1*
X14156180Y14935076D1*
X14150020Y14938354D1*
X14144103Y14942055D1*
X14138458Y14946160D1*
X14133114Y14950648D1*
X14128095Y14955499D1*
X14123426Y14960689D1*
X14119131Y14966192D1*
X14115229Y14971982D1*
X14111741Y14978029D1*
X14108682Y14984306D1*
X14106068Y14990781D1*
X14103912Y14997422D1*
X14102224Y15004198D1*
X14101013Y15011076D1*
X14100283Y15018021D1*
X14100040Y15025000D1*
X6300000Y19000000D2*
X5100000D1*
X6300000Y20200000D2*
X5100000D1*
Y20010040D1*
X6300000Y20200000D2*
Y20014960D1*
Y19180000D2*
Y19000000D1*
X5100000Y19200040D2*
Y19000000D1*
Y19510000D2*
Y19684960D1*
X6300000Y19515040D2*
Y19684960D1*
X5899950Y19399960D2*
X5500050D1*
Y19800040D1*
X5899950D1*
Y19399960D1*
X5599950Y19600000D2*
X5600194Y19606973D1*
X5600924Y19613912D1*
X5602136Y19620783D1*
X5603826Y19627553D1*
X5605984Y19634188D1*
X5608600Y19640657D1*
X5611661Y19646928D1*
X5615153Y19652971D1*
X5619058Y19658755D1*
X5623357Y19664253D1*
X5628030Y19669438D1*
X5633053Y19674285D1*
X5638403Y19678770D1*
X5644053Y19682871D1*
X5649975Y19686568D1*
X5656141Y19689843D1*
X5662521Y19692681D1*
X5669083Y19695068D1*
X5675796Y19696991D1*
X5682626Y19698441D1*
X5689542Y19699412D1*
X5696508Y19699899D1*
X5703492D1*
X5710458Y19699412D1*
X5717374Y19698441D1*
X5724204Y19696991D1*
X5730917Y19695068D1*
X5737479Y19692681D1*
X5743859Y19689843D1*
X5750025Y19686568D1*
X5755947Y19682871D1*
X5761597Y19678770D1*
X5766947Y19674285D1*
X5771970Y19669438D1*
X5776643Y19664253D1*
X5780942Y19658755D1*
X5784847Y19652971D1*
X5788339Y19646928D1*
X5791400Y19640657D1*
X5794016Y19634188D1*
X5796174Y19627553D1*
X5797864Y19620783D1*
X5799076Y19613912D1*
X5799806Y19606973D1*
X5800050Y19600000D1*
X5799806Y19593027D1*
X5799076Y19586088D1*
X5797864Y19579217D1*
X5796174Y19572447D1*
X5794016Y19565812D1*
X5791400Y19559343D1*
X5788339Y19553072D1*
X5784847Y19547029D1*
X5780942Y19541245D1*
X5776643Y19535747D1*
X5771970Y19530562D1*
X5766947Y19525715D1*
X5761597Y19521230D1*
X5755947Y19517129D1*
X5750025Y19513432D1*
X5743859Y19510157D1*
X5737479Y19507319D1*
X5730917Y19504932D1*
X5724204Y19503009D1*
X5717374Y19501559D1*
X5710458Y19500588D1*
X5703492Y19500101D1*
X5696508D1*
X5689542Y19500588D1*
X5682626Y19501559D1*
X5675796Y19503009D1*
X5669083Y19504932D1*
X5662521Y19507319D1*
X5656141Y19510157D1*
X5649975Y19513432D1*
X5644053Y19517129D1*
X5638403Y19521230D1*
X5633053Y19525715D1*
X5628030Y19530562D1*
X5623357Y19535747D1*
X5619058Y19541245D1*
X5615153Y19547029D1*
X5611661Y19553072D1*
X5608600Y19559343D1*
X5605984Y19565812D1*
X5603826Y19572447D1*
X5602136Y19579217D1*
X5600924Y19586088D1*
X5600194Y19593027D1*
X5599950Y19600000D1*
X4300000Y19000000D2*
X3100000D1*
X4300000Y20200000D2*
X3100000D1*
Y20010040D1*
X4300000Y20200000D2*
Y20014960D1*
Y19180000D2*
Y19000000D1*
X3100000Y19200040D2*
Y19000000D1*
Y19510000D2*
Y19684960D1*
X4300000Y19515040D2*
Y19684960D1*
X3899950Y19399960D2*
X3500050D1*
Y19800040D1*
X3899950D1*
Y19399960D1*
X3599950Y19600000D2*
X3600194Y19606973D1*
X3600924Y19613912D1*
X3602136Y19620783D1*
X3603826Y19627553D1*
X3605984Y19634188D1*
X3608600Y19640657D1*
X3611661Y19646928D1*
X3615153Y19652971D1*
X3619058Y19658755D1*
X3623357Y19664253D1*
X3628030Y19669438D1*
X3633053Y19674285D1*
X3638403Y19678770D1*
X3644053Y19682871D1*
X3649975Y19686568D1*
X3656141Y19689843D1*
X3662521Y19692681D1*
X3669083Y19695068D1*
X3675796Y19696991D1*
X3682626Y19698441D1*
X3689542Y19699412D1*
X3696508Y19699899D1*
X3703492D1*
X3710458Y19699412D1*
X3717374Y19698441D1*
X3724204Y19696991D1*
X3730917Y19695068D1*
X3737479Y19692681D1*
X3743859Y19689843D1*
X3750025Y19686568D1*
X3755947Y19682871D1*
X3761597Y19678770D1*
X3766947Y19674285D1*
X3771970Y19669438D1*
X3776643Y19664253D1*
X3780942Y19658755D1*
X3784847Y19652971D1*
X3788339Y19646928D1*
X3791400Y19640657D1*
X3794016Y19634188D1*
X3796174Y19627553D1*
X3797864Y19620783D1*
X3799076Y19613912D1*
X3799806Y19606973D1*
X3800050Y19600000D1*
X3799806Y19593027D1*
X3799076Y19586088D1*
X3797864Y19579217D1*
X3796174Y19572447D1*
X3794016Y19565812D1*
X3791400Y19559343D1*
X3788339Y19553072D1*
X3784847Y19547029D1*
X3780942Y19541245D1*
X3776643Y19535747D1*
X3771970Y19530562D1*
X3766947Y19525715D1*
X3761597Y19521230D1*
X3755947Y19517129D1*
X3750025Y19513432D1*
X3743859Y19510157D1*
X3737479Y19507319D1*
X3730917Y19504932D1*
X3724204Y19503009D1*
X3717374Y19501559D1*
X3710458Y19500588D1*
X3703492Y19500101D1*
X3696508D1*
X3689542Y19500588D1*
X3682626Y19501559D1*
X3675796Y19503009D1*
X3669083Y19504932D1*
X3662521Y19507319D1*
X3656141Y19510157D1*
X3649975Y19513432D1*
X3644053Y19517129D1*
X3638403Y19521230D1*
X3633053Y19525715D1*
X3628030Y19530562D1*
X3623357Y19535747D1*
X3619058Y19541245D1*
X3615153Y19547029D1*
X3611661Y19553072D1*
X3608600Y19559343D1*
X3605984Y19565812D1*
X3603826Y19572447D1*
X3602136Y19579217D1*
X3600924Y19586088D1*
X3600194Y19593027D1*
X3599950Y19600000D1*
X9800000Y19000000D2*
X8600000D1*
X9800000Y20200000D2*
X8600000D1*
Y20010040D1*
X9800000Y20200000D2*
Y20014960D1*
Y19180000D2*
Y19000000D1*
X8600000Y19200040D2*
Y19000000D1*
Y19510000D2*
Y19684960D1*
X9800000Y19515040D2*
Y19684960D1*
X9399950Y19399960D2*
X9000050D1*
Y19800040D1*
X9399950D1*
Y19399960D1*
X9099950Y19600000D2*
X9100194Y19606973D1*
X9100924Y19613912D1*
X9102136Y19620783D1*
X9103826Y19627553D1*
X9105984Y19634188D1*
X9108600Y19640657D1*
X9111661Y19646928D1*
X9115153Y19652971D1*
X9119058Y19658755D1*
X9123357Y19664253D1*
X9128030Y19669438D1*
X9133053Y19674285D1*
X9138403Y19678770D1*
X9144053Y19682871D1*
X9149975Y19686568D1*
X9156141Y19689843D1*
X9162521Y19692681D1*
X9169083Y19695068D1*
X9175796Y19696991D1*
X9182626Y19698441D1*
X9189542Y19699412D1*
X9196508Y19699899D1*
X9203492D1*
X9210458Y19699412D1*
X9217374Y19698441D1*
X9224204Y19696991D1*
X9230917Y19695068D1*
X9237479Y19692681D1*
X9243859Y19689843D1*
X9250025Y19686568D1*
X9255947Y19682871D1*
X9261597Y19678770D1*
X9266947Y19674285D1*
X9271970Y19669438D1*
X9276643Y19664253D1*
X9280942Y19658755D1*
X9284847Y19652971D1*
X9288339Y19646928D1*
X9291400Y19640657D1*
X9294016Y19634188D1*
X9296174Y19627553D1*
X9297864Y19620783D1*
X9299076Y19613912D1*
X9299806Y19606973D1*
X9300050Y19600000D1*
X9299806Y19593027D1*
X9299076Y19586088D1*
X9297864Y19579217D1*
X9296174Y19572447D1*
X9294016Y19565812D1*
X9291400Y19559343D1*
X9288339Y19553072D1*
X9284847Y19547029D1*
X9280942Y19541245D1*
X9276643Y19535747D1*
X9271970Y19530562D1*
X9266947Y19525715D1*
X9261597Y19521230D1*
X9255947Y19517129D1*
X9250025Y19513432D1*
X9243859Y19510157D1*
X9237479Y19507319D1*
X9230917Y19504932D1*
X9224204Y19503009D1*
X9217374Y19501559D1*
X9210458Y19500588D1*
X9203492Y19500101D1*
X9196508D1*
X9189542Y19500588D1*
X9182626Y19501559D1*
X9175796Y19503009D1*
X9169083Y19504932D1*
X9162521Y19507319D1*
X9156141Y19510157D1*
X9149975Y19513432D1*
X9144053Y19517129D1*
X9138403Y19521230D1*
X9133053Y19525715D1*
X9128030Y19530562D1*
X9123357Y19535747D1*
X9119058Y19541245D1*
X9115153Y19547029D1*
X9111661Y19553072D1*
X9108600Y19559343D1*
X9105984Y19565812D1*
X9103826Y19572447D1*
X9102136Y19579217D1*
X9100924Y19586088D1*
X9100194Y19593027D1*
X9099950Y19600000D1*
X11800000Y19000000D2*
X10600000D1*
X11800000Y20200000D2*
X10600000D1*
Y20010040D1*
X11800000Y20200000D2*
Y20014960D1*
Y19180000D2*
Y19000000D1*
X10600000Y19200040D2*
Y19000000D1*
Y19510000D2*
Y19684960D1*
X11800000Y19515040D2*
Y19684960D1*
X11399950Y19399960D2*
X11000050D1*
Y19800040D1*
X11399950D1*
Y19399960D1*
X11099950Y19600000D2*
X11100194Y19606973D1*
X11100924Y19613912D1*
X11102136Y19620783D1*
X11103826Y19627553D1*
X11105984Y19634188D1*
X11108600Y19640657D1*
X11111661Y19646928D1*
X11115153Y19652971D1*
X11119058Y19658755D1*
X11123357Y19664253D1*
X11128030Y19669438D1*
X11133053Y19674285D1*
X11138403Y19678770D1*
X11144053Y19682871D1*
X11149975Y19686568D1*
X11156141Y19689843D1*
X11162521Y19692681D1*
X11169083Y19695068D1*
X11175796Y19696991D1*
X11182626Y19698441D1*
X11189542Y19699412D1*
X11196508Y19699899D1*
X11203492D1*
X11210458Y19699412D1*
X11217374Y19698441D1*
X11224204Y19696991D1*
X11230917Y19695068D1*
X11237479Y19692681D1*
X11243859Y19689843D1*
X11250025Y19686568D1*
X11255947Y19682871D1*
X11261597Y19678770D1*
X11266947Y19674285D1*
X11271970Y19669438D1*
X11276643Y19664253D1*
X11280942Y19658755D1*
X11284847Y19652971D1*
X11288339Y19646928D1*
X11291400Y19640657D1*
X11294016Y19634188D1*
X11296174Y19627553D1*
X11297864Y19620783D1*
X11299076Y19613912D1*
X11299806Y19606973D1*
X11300050Y19600000D1*
X11299806Y19593027D1*
X11299076Y19586088D1*
X11297864Y19579217D1*
X11296174Y19572447D1*
X11294016Y19565812D1*
X11291400Y19559343D1*
X11288339Y19553072D1*
X11284847Y19547029D1*
X11280942Y19541245D1*
X11276643Y19535747D1*
X11271970Y19530562D1*
X11266947Y19525715D1*
X11261597Y19521230D1*
X11255947Y19517129D1*
X11250025Y19513432D1*
X11243859Y19510157D1*
X11237479Y19507319D1*
X11230917Y19504932D1*
X11224204Y19503009D1*
X11217374Y19501559D1*
X11210458Y19500588D1*
X11203492Y19500101D1*
X11196508D1*
X11189542Y19500588D1*
X11182626Y19501559D1*
X11175796Y19503009D1*
X11169083Y19504932D1*
X11162521Y19507319D1*
X11156141Y19510157D1*
X11149975Y19513432D1*
X11144053Y19517129D1*
X11138403Y19521230D1*
X11133053Y19525715D1*
X11128030Y19530562D1*
X11123357Y19535747D1*
X11119058Y19541245D1*
X11115153Y19547029D1*
X11111661Y19553072D1*
X11108600Y19559343D1*
X11105984Y19565812D1*
X11103826Y19572447D1*
X11102136Y19579217D1*
X11100924Y19586088D1*
X11100194Y19593027D1*
X11099950Y19600000D1*
X13600000Y11925000D2*
Y13125000D1*
X14800000Y11925000D2*
Y13125000D1*
X14610040D1*
X14800000Y11925000D2*
X14614960D1*
X13780000D2*
X13600000D1*
X13800040Y13125000D2*
X13600000D1*
X14110000D2*
X14284960D1*
X14115040Y11925000D2*
X14284960D1*
X13999960Y12325050D2*
X14400040D1*
Y12724950D1*
X13999960D1*
Y12325050D1*
X14100040Y12525000D2*
X14100283Y12531979D1*
X14101013Y12538924D1*
X14102224Y12545802D1*
X14103912Y12552578D1*
X14106068Y12559219D1*
X14108682Y12565694D1*
X14111741Y12571971D1*
X14115229Y12578018D1*
X14119131Y12583808D1*
X14123426Y12589311D1*
X14128095Y12594501D1*
X14133114Y12599352D1*
X14138458Y12603840D1*
X14144103Y12607945D1*
X14150020Y12611646D1*
X14156180Y12614924D1*
X14162554Y12617765D1*
X14169111Y12620153D1*
X14175817Y12622078D1*
X14182642Y12623530D1*
X14189551Y12624502D1*
X14196511Y12624989D1*
X14203489D1*
X14210449Y12624502D1*
X14217358Y12623530D1*
X14224183Y12622078D1*
X14230889Y12620153D1*
X14237446Y12617765D1*
X14243820Y12614924D1*
X14249980Y12611646D1*
X14255897Y12607945D1*
X14261542Y12603840D1*
X14266886Y12599352D1*
X14271905Y12594501D1*
X14276574Y12589311D1*
X14280869Y12583808D1*
X14284771Y12578018D1*
X14288259Y12571971D1*
X14291318Y12565694D1*
X14293932Y12559219D1*
X14296088Y12552578D1*
X14297776Y12545802D1*
X14298987Y12538924D1*
X14299717Y12531979D1*
X14299960Y12525000D1*
X14299717Y12518021D1*
X14298987Y12511076D1*
X14297776Y12504198D1*
X14296088Y12497422D1*
X14293932Y12490781D1*
X14291318Y12484306D1*
X14288259Y12478029D1*
X14284771Y12471982D1*
X14280869Y12466192D1*
X14276574Y12460689D1*
X14271905Y12455499D1*
X14266886Y12450648D1*
X14261542Y12446160D1*
X14255897Y12442055D1*
X14249980Y12438354D1*
X14243820Y12435076D1*
X14237446Y12432235D1*
X14230889Y12429847D1*
X14224183Y12427922D1*
X14217358Y12426470D1*
X14210449Y12425498D1*
X14203489Y12425011D1*
X14196511D1*
X14189551Y12425498D1*
X14182642Y12426470D1*
X14175817Y12427922D1*
X14169111Y12429847D1*
X14162554Y12432235D1*
X14156180Y12435076D1*
X14150020Y12438354D1*
X14144103Y12442055D1*
X14138458Y12446160D1*
X14133114Y12450648D1*
X14128095Y12455499D1*
X14123426Y12460689D1*
X14119131Y12466192D1*
X14115229Y12471982D1*
X14111741Y12478029D1*
X14108682Y12484306D1*
X14106068Y12490781D1*
X14103912Y12497422D1*
X14102224Y12504198D1*
X14101013Y12511076D1*
X14100283Y12518021D1*
X14100040Y12525000D1*
X11533514Y10219732D2*
G03X11533514Y10465768I-119560J123018D01*
G01*
X11297486Y10219732D2*
G02X11297486Y10465768I119560J123018D01*
G01*
X3961000Y11857500D2*
X12139000D1*
Y11607500D1*
X3961000D1*
Y11857500D1*
X4913500Y8689750D2*
X13091500D1*
Y8439750D1*
X4913500D1*
Y8689750D1*
X5476250Y15885000D2*
X5226250D1*
Y15073000D1*
X5476250D1*
Y15885000D1*
X1826998Y14030375D2*
X2410122D1*
Y15517498D1*
X1826998D1*
Y14030375D1*
X1890500D2*
X1890151Y15517498D1*
X5652702Y17954440D2*
Y18404500D1*
X6852798Y17954440D2*
Y18404500D1*
X5652702D1*
X6852798Y17654530D2*
Y17104500D1*
X5652702D1*
Y17654530D2*
Y17104500D1*
X6852798Y18204560D2*
X5652702D1*
X2460000Y18755000D2*
X2740000D1*
Y20445000D1*
X2460000D1*
Y18755000D1*
X11137835Y17842562D2*
D90*
X11239923D1*
Y17886362D1*
X11234982Y17900962D1*
X11230152Y17905791D1*
X11220494Y17910620D1*
X11205894D1*
X11196123Y17905791D1*
X11191294Y17900962D1*
X11186465Y17886362D1*
X11181523Y17900962D1*
X11176694Y17905791D1*
X11167036Y17910620D1*
X11157265D1*
X11147606Y17905791D1*
X11142665Y17900962D1*
X11137835Y17886362D1*
Y17842562D1*
X11186465D2*
Y17886362D1*
X11239923Y18019822D2*
X11137836Y17980851D1*
X11239923Y17941993D1*
X11205894Y17956593D2*
Y18005222D1*
X11157377Y18051194D2*
X11152436Y18060965D1*
X11137948Y18075565D1*
X11239923D1*
X6479452Y14746779D2*
X6474622Y14756438D1*
X6464852Y14766209D1*
X6455193Y14771038D1*
X6435764D1*
X6425993Y14766209D1*
X6416335Y14756438D1*
X6411393Y14746779D1*
X6406564Y14732179D1*
Y14707809D1*
X6411393Y14693321D1*
X6416335Y14683550D1*
X6425993Y14673892D1*
X6435764Y14668950D1*
X6455193D1*
X6464852Y14673892D1*
X6474622Y14683550D1*
X6479452Y14693321D1*
X6515766Y14746667D2*
Y14751496D1*
X6520595Y14761267D1*
X6525424Y14766096D1*
X6535195Y14770926D1*
X6554624D1*
X6564283Y14766096D1*
X6569112Y14761267D1*
X6574053Y14751496D1*
Y14741838D1*
X6569112Y14732067D1*
X6559453Y14717579D1*
X6510824Y14668950D1*
X6578883D1*
X6950573Y15940533D2*
X6945744Y15950191D1*
X6935973Y15959962D1*
X6926315Y15964791D1*
X6906886D1*
X6897115Y15959962D1*
X6887456Y15950191D1*
X6882515Y15940533D1*
X6877686Y15925933D1*
Y15901562D1*
X6882515Y15887074D1*
X6887456Y15877304D1*
X6897115Y15867645D1*
X6906886Y15862704D1*
X6926315D1*
X6935973Y15867645D1*
X6945744Y15877304D1*
X6950573Y15887074D1*
X6981946Y15945250D2*
X6991717Y15950191D1*
X7006317Y15964679D1*
Y15862704D1*
X7066889Y15964679D2*
X7052289Y15959850D1*
X7042518Y15945250D1*
X7037689Y15920991D1*
Y15906391D1*
X7042518Y15882133D1*
X7052289Y15867533D1*
X7066889Y15862704D1*
X7076548D1*
X7091148Y15867533D1*
X7100806Y15882133D1*
X7105748Y15906391D1*
Y15920991D1*
X7100806Y15945250D1*
X7091148Y15959850D1*
X7076548Y15964679D1*
X7066889D1*
X7100806Y15945250D2*
X7042518Y15882133D1*
X2642962Y8994973D2*
X2745050D1*
Y9029002D1*
X2740108Y9043602D1*
X2730450Y9053373D1*
X2720679Y9058202D1*
X2706191Y9063031D1*
X2681821D1*
X2667221Y9058202D1*
X2657562Y9053373D1*
X2647791Y9043602D1*
X2642962Y9029002D1*
Y8994973D1*
X2662504Y9094404D2*
X2657562Y9104174D1*
X2643075Y9118774D1*
X2745050D1*
X8939774Y16538791D2*
Y16436704D1*
X8973804D1*
X8988404Y16441645D1*
X8998174Y16451304D1*
X9003004Y16461074D1*
X9007833Y16475562D1*
Y16499933D1*
X9003004Y16514533D1*
X8998174Y16524191D1*
X8988404Y16533962D1*
X8973804Y16538791D1*
X8939774D1*
X9117035Y16436704D2*
X9078064Y16538791D1*
X9039205Y16436704D1*
X9053805Y16470733D2*
X9102435D1*
X9153349Y16514421D2*
Y16519250D1*
X9158178Y16529021D1*
X9163007Y16533850D1*
X9172778Y16538679D1*
X9192207D1*
X9201866Y16533850D1*
X9206695Y16529021D1*
X9211636Y16519250D1*
Y16509591D1*
X9206695Y16499821D1*
X9197036Y16485333D1*
X9148407Y16436704D1*
X9216466D1*
X6065134Y13266038D2*
Y13163950D1*
X6099163D1*
X6113763Y13168892D1*
X6123534Y13178550D1*
X6128363Y13188321D1*
X6133192Y13202809D1*
Y13227179D1*
X6128363Y13241779D1*
X6123534Y13251438D1*
X6113763Y13261209D1*
X6099163Y13266038D1*
X6065134D1*
X6164565D2*
Y13163950D1*
X6198594D1*
X6213194Y13168892D1*
X6222965Y13178550D1*
X6227794Y13188321D1*
X6232623Y13202809D1*
Y13227179D1*
X6227794Y13241779D1*
X6222965Y13251438D1*
X6213194Y13261209D1*
X6198594Y13266038D1*
X6164565D1*
X6263996Y13246496D2*
X6273766Y13251438D1*
X6288366Y13265926D1*
Y13163950D1*
X8313413Y13266041D2*
Y13163954D1*
X8347442D1*
X8362042Y13168895D1*
X8371813Y13178554D1*
X8376642Y13188324D1*
X8381472Y13202812D1*
Y13227183D1*
X8376642Y13241783D1*
X8371813Y13251441D1*
X8362042Y13261212D1*
X8347442Y13266041D1*
X8313413D1*
X8412844D2*
Y13163954D1*
X8446873D1*
X8461473Y13168895D1*
X8471244Y13178554D1*
X8476073Y13188324D1*
X8480903Y13202812D1*
Y13227183D1*
X8476073Y13241783D1*
X8471244Y13251441D1*
X8461473Y13261212D1*
X8446873Y13266041D1*
X8412844D1*
X8517217Y13241671D2*
Y13246500D1*
X8522046Y13256271D1*
X8526875Y13261100D1*
X8536646Y13265929D1*
X8556075D1*
X8565734Y13261100D1*
X8570563Y13256271D1*
X8575504Y13246500D1*
Y13236841D1*
X8570563Y13227071D1*
X8560904Y13212583D1*
X8512275Y13163954D1*
X8580334D1*
X10297790Y13234288D2*
Y13132200D1*
X10331819D1*
X10346419Y13137142D1*
X10356190Y13146800D1*
X10361019Y13156571D1*
X10365848Y13171059D1*
Y13195429D1*
X10361019Y13210029D1*
X10356190Y13219688D1*
X10346419Y13229459D1*
X10331819Y13234288D1*
X10297790D1*
X10397221D2*
Y13132200D1*
X10431250D1*
X10445850Y13137142D1*
X10455621Y13146800D1*
X10460450Y13156571D1*
X10465279Y13171059D1*
Y13195429D1*
X10460450Y13210029D1*
X10455621Y13219688D1*
X10445850Y13229459D1*
X10431250Y13234288D1*
X10397221D1*
X10506423Y13234176D2*
X10559769D1*
X10530681Y13195317D1*
X10545281D1*
X10554939Y13190488D1*
X10559769Y13185659D1*
X10564710Y13171059D1*
Y13161400D1*
X10559769Y13146800D1*
X10550110Y13137029D1*
X10535510Y13132200D1*
X10520910D1*
X10506423Y13137029D1*
X10501593Y13141971D1*
X10496652Y13151629D1*
X9231748Y18248415D2*
Y18146327D1*
X9265778D1*
X9280378Y18151268D1*
X9290148Y18160927D1*
X9294978Y18170698D1*
X9299807Y18185185D1*
Y18209556D1*
X9294978Y18224156D1*
X9290148Y18233815D1*
X9280378Y18243585D1*
X9265778Y18248415D1*
X9231748D1*
X9331179D2*
Y18146327D1*
X9365209D1*
X9379809Y18151268D1*
X9389579Y18160927D1*
X9394409Y18170698D1*
X9399238Y18185185D1*
Y18209556D1*
X9394409Y18224156D1*
X9389579Y18233815D1*
X9379809Y18243585D1*
X9365209Y18248415D1*
X9331179D1*
X9479240Y18146327D2*
Y18248302D1*
X9430610Y18180356D1*
X9503498D1*
X3683709Y15507917D2*
X3785796D1*
X3785797Y15541946D1*
X3780855Y15556546D1*
X3771197Y15566317D1*
X3761426Y15571146D1*
X3746938Y15575975D1*
X3722567D1*
X3707967Y15571146D1*
X3698309Y15566317D1*
X3688538Y15556546D1*
X3683709Y15541946D1*
Y15507917D1*
Y15607348D2*
X3785797Y15607347D1*
X3785796Y15641377D1*
X3780855Y15655977D1*
X3771197Y15665747D1*
X3761426Y15670577D1*
X3746938Y15675406D1*
X3722567D1*
X3707967Y15670577D1*
X3698309Y15665748D1*
X3688538Y15655977D1*
X3683709Y15641377D1*
Y15607348D1*
X3683821Y15765066D2*
Y15716549D1*
X3727509Y15711720D1*
X3722680Y15716549D1*
X3717738Y15731149D1*
Y15745637D1*
X3722680Y15760237D1*
X3732338Y15770008D1*
X3746938Y15774837D1*
X3756596D1*
X3771196Y15770008D1*
X3780967Y15760237D1*
X3785796Y15745637D1*
Y15731149D1*
X3780967Y15716549D1*
X3776026Y15711720D1*
X3766367Y15706778D1*
X5070582Y10860291D2*
Y10758204D1*
X5138641Y10860291D2*
Y10758204D1*
X5070582Y10811662D2*
X5138641D1*
X5242901Y10836033D2*
X5238072Y10845691D1*
X5228301Y10855462D1*
X5218643Y10860291D1*
X5199213D1*
X5189443Y10855462D1*
X5179784Y10845691D1*
X5174843Y10836033D1*
X5170013Y10821433D1*
Y10797062D1*
X5174843Y10782574D1*
X5179784Y10772804D1*
X5189443Y10763145D1*
X5199213Y10758204D1*
X5218643D1*
X5228301Y10763145D1*
X5238072Y10772804D1*
X5242901Y10782574D1*
Y10797062D1*
X5218643D1*
X5274274Y10840750D2*
X5284044Y10845691D1*
X5298644Y10860179D1*
Y10758204D1*
X8922238Y10860291D2*
Y10758204D1*
X8990297Y10860291D2*
Y10758204D1*
X8922238Y10811662D2*
X8990297D1*
X9094557Y10836033D2*
X9089728Y10845691D1*
X9079957Y10855462D1*
X9070299Y10860291D1*
X9050869D1*
X9041099Y10855462D1*
X9031440Y10845691D1*
X9026499Y10836033D1*
X9021669Y10821433D1*
Y10797062D1*
X9026499Y10782574D1*
X9031440Y10772804D1*
X9041099Y10763145D1*
X9050869Y10758204D1*
X9070299D1*
X9079957Y10763145D1*
X9089728Y10772804D1*
X9094557Y10782574D1*
Y10797062D1*
X9070299D1*
X9130871Y10835921D2*
Y10840750D1*
X9135700Y10850521D1*
X9140530Y10855350D1*
X9150300Y10860179D1*
X9169730D1*
X9179388Y10855350D1*
X9184217Y10850521D1*
X9189159Y10840750D1*
Y10831091D1*
X9184217Y10821321D1*
X9174559Y10806833D1*
X9125930Y10758204D1*
X9193988D1*
X11704943Y15218665D2*
Y15140948D1*
X11700114Y15126348D1*
X11695172Y15121518D1*
X11685514Y15116577D1*
X11675743D1*
X11666084Y15121518D1*
X11661255Y15126348D1*
X11656314Y15140948D1*
Y15150606D1*
X11736316Y15199123D2*
X11746086Y15204065D1*
X11760686Y15218552D1*
Y15116577D1*
X11641257Y16932410D2*
X11684945D1*
X11699545Y16937352D1*
X11704486Y16942181D1*
X11709315Y16951839D1*
Y16961610D1*
X11704486Y16971269D1*
X11699545Y16976210D1*
X11684945Y16981039D1*
X11641257D1*
Y16878952D1*
X11675286Y16932410D2*
X11709315Y16878952D1*
X11750459Y16980927D2*
X11803805D1*
X11774717Y16942069D1*
X11789317D1*
X11798976Y16937239D1*
X11803805Y16932410D1*
X11808746Y16917810D1*
Y16908152D1*
X11803805Y16893552D1*
X11794146Y16883781D1*
X11779546Y16878952D1*
X11764946D1*
X11750459Y16883781D1*
X11745629Y16888722D1*
X11740688Y16898381D1*
X11840119Y16961498D2*
X11849890Y16966439D1*
X11864490Y16980927D1*
Y16878952D1*
X13792312Y14981442D2*
X13782541Y14971784D1*
X13777712Y14957184D1*
Y14937755D1*
X13782541Y14923155D1*
X13792312Y14913384D1*
X13801971D1*
X13811741Y14918325D1*
X13816571Y14923155D1*
X13821400Y14932813D1*
X13831171Y14962013D1*
X13836000Y14971784D1*
X13840941Y14976613D1*
X13850600Y14981442D1*
X13865200D1*
X13874858Y14971784D1*
X13879800Y14957184D1*
Y14937755D1*
X13874858Y14923155D1*
X13865200Y14913384D1*
X13777712Y15012815D2*
X13879800D1*
Y15056615D1*
X13874858Y15071215D1*
X13870029Y15076044D1*
X13860371Y15080873D1*
X13845771D1*
X13836000Y15076044D1*
X13831171Y15071215D1*
X13826341Y15056615D1*
X13821400Y15071215D1*
X13816571Y15076044D1*
X13806912Y15080873D1*
X13797141D1*
X13787483Y15076044D1*
X13782541Y15071215D1*
X13777712Y15056615D1*
Y15012815D1*
X13826341D2*
Y15056615D1*
X13797254Y15112246D2*
X13792312Y15122016D1*
X13777825Y15136616D1*
X13879800D1*
X5650472Y20007691D2*
X5640813Y20017462D1*
X5626213Y20022291D1*
X5606784D1*
X5592184Y20017462D1*
X5582413Y20007691D1*
Y19998033D1*
X5587355Y19988262D1*
X5592184Y19983433D1*
X5601842Y19978604D1*
X5631042Y19968833D1*
X5640813Y19964004D1*
X5645642Y19959062D1*
X5650472Y19949404D1*
Y19934804D1*
X5640813Y19925145D1*
X5626213Y19920204D1*
X5606784D1*
X5592184Y19925145D1*
X5582413Y19934804D1*
X5681844Y20022291D2*
Y19920204D1*
X5725644D1*
X5740244Y19925145D1*
X5745073Y19929974D1*
X5749903Y19939633D1*
Y19954233D1*
X5745073Y19964004D1*
X5740244Y19968833D1*
X5725644Y19973662D1*
X5740244Y19978604D1*
X5745073Y19983433D1*
X5749903Y19993091D1*
Y20002862D1*
X5745073Y20012521D1*
X5740244Y20017462D1*
X5725644Y20022291D1*
X5681844D1*
Y19973662D2*
X5725644D1*
X5786217Y19997921D2*
Y20002750D1*
X5791046Y20012521D1*
X5795875Y20017350D1*
X5805646Y20022179D1*
X5825075D1*
X5834734Y20017350D1*
X5839563Y20012521D1*
X5844504Y20002750D1*
Y19993091D1*
X5839563Y19983321D1*
X5829904Y19968833D1*
X5781275Y19920204D1*
X5849334D1*
X5592183Y18863452D2*
Y18965540D1*
X5553324Y18863452D1*
X5514466Y18965540D1*
Y18863452D1*
X5686672Y18965540D2*
X5623555D1*
Y18863452D1*
X5686672D1*
X5623555Y18916911D2*
X5662414D1*
X5786103Y18965540D2*
Y18863452D1*
X5718045Y18965540D1*
Y18863452D1*
X5817476Y18965540D2*
Y18892652D1*
X5822305Y18878052D1*
X5832076Y18868394D1*
X5846676Y18863452D1*
X5856334D1*
X5870934Y18868394D1*
X5880705Y18878052D1*
X5885534Y18892652D1*
Y18965540D1*
X3650472Y20023565D2*
X3640813Y20033335D1*
X3626213Y20038165D1*
X3606784D1*
X3592184Y20033335D1*
X3582413Y20023565D1*
Y20013906D1*
X3587355Y20004135D1*
X3592184Y19999306D1*
X3601842Y19994477D1*
X3631042Y19984706D1*
X3640813Y19979877D1*
X3645642Y19974935D1*
X3650472Y19965277D1*
Y19950677D1*
X3640813Y19941018D1*
X3626213Y19936077D1*
X3606784D1*
X3592184Y19941018D1*
X3582413Y19950677D1*
X3681844Y20038165D2*
Y19936077D1*
X3725644D1*
X3740244Y19941018D1*
X3745073Y19945848D1*
X3749903Y19955506D1*
Y19970106D1*
X3745073Y19979877D1*
X3740244Y19984706D1*
X3725644Y19989535D1*
X3740244Y19994477D1*
X3745073Y19999306D1*
X3749903Y20008965D1*
Y20018735D1*
X3745073Y20028394D1*
X3740244Y20033335D1*
X3725644Y20038165D1*
X3681844D1*
Y19989535D2*
X3725644D1*
X3791046Y20038052D2*
X3844392D1*
X3815304Y19999194D1*
X3829904D1*
X3839563Y19994365D1*
X3844392Y19989535D1*
X3849334Y19974935D1*
Y19965277D1*
X3844392Y19950677D1*
X3834734Y19940906D1*
X3820134Y19936077D1*
X3805534D1*
X3791046Y19940906D1*
X3786217Y19945848D1*
X3781275Y19955506D1*
X3535223Y18863452D2*
X3496253Y18965540D1*
X3457394Y18863452D1*
X3471994Y18897481D2*
X3520623D1*
X3566596Y18965540D2*
Y18863452D1*
X3624884D1*
X3734085D2*
X3695115Y18965540D1*
X3656256Y18863452D1*
X3670856Y18897481D2*
X3719485D1*
X3765458Y18916911D2*
X3809146D1*
X3823746Y18921852D1*
X3828687Y18926681D1*
X3833516Y18936340D1*
Y18946111D1*
X3828687Y18955769D1*
X3823746Y18960711D1*
X3809146Y18965540D1*
X3765458D1*
Y18863452D1*
X3799487Y18916911D2*
X3833516Y18863452D1*
X3942606D2*
Y18965540D1*
X3903747Y18863452D1*
X3864889Y18965540D1*
Y18863452D1*
X9100434Y20039441D2*
X9090775Y20049212D1*
X9076175Y20054041D1*
X9056746D1*
X9042146Y20049212D1*
X9032375Y20039441D1*
Y20029783D1*
X9037317Y20020012D1*
X9042146Y20015183D1*
X9051804Y20010354D1*
X9081004Y20000583D1*
X9090775Y19995754D1*
X9095604Y19990812D1*
X9100434Y19981154D1*
Y19966554D1*
X9090775Y19956895D1*
X9076175Y19951954D1*
X9056746D1*
X9042146Y19956895D1*
X9032375Y19966554D1*
X9131806Y20054041D2*
Y19951954D1*
X9175606D1*
X9190206Y19956895D1*
X9195035Y19961724D1*
X9199865Y19971383D1*
Y19985983D1*
X9195035Y19995754D1*
X9190206Y20000583D1*
X9175606Y20005412D1*
X9190206Y20010354D1*
X9195035Y20015183D1*
X9199865Y20024841D1*
Y20034612D1*
X9195035Y20044271D1*
X9190206Y20049212D1*
X9175606Y20054041D1*
X9131806D1*
Y20005412D2*
X9175606D1*
X9279866Y19951954D2*
Y20053929D1*
X9231237Y19985983D1*
X9304125D1*
X9199944Y18958184D2*
Y18870696D1*
X9156256Y18914384D2*
X9243744D1*
X11102848Y20023565D2*
X11093190Y20033335D1*
X11078590Y20038165D1*
X11059161D1*
X11044561Y20033335D1*
X11034790Y20023565D1*
Y20013906D1*
X11039731Y20004135D1*
X11044561Y19999306D1*
X11054219Y19994477D1*
X11083419Y19984706D1*
X11093190Y19979877D1*
X11098019Y19974935D1*
X11102848Y19965277D1*
Y19950677D1*
X11093190Y19941018D1*
X11078590Y19936077D1*
X11059161D1*
X11044561Y19941018D1*
X11034790Y19950677D1*
X11134221Y20038165D2*
Y19936077D1*
X11178021D1*
X11192621Y19941018D1*
X11197450Y19945848D1*
X11202279Y19955506D1*
Y19970106D1*
X11197450Y19979877D1*
X11192621Y19984706D1*
X11178021Y19989535D1*
X11192621Y19994477D1*
X11197450Y19999306D1*
X11202279Y20008965D1*
Y20018735D1*
X11197450Y20028394D1*
X11192621Y20033335D1*
X11178021Y20038165D1*
X11134221D1*
Y19989535D2*
X11178021D1*
X11291939Y20038052D2*
X11243423D1*
X11238593Y19994365D1*
X11243423Y19999194D1*
X11258023Y20004135D1*
X11272510D1*
X11287110Y19999194D1*
X11296881Y19989535D1*
X11301710Y19974935D1*
Y19965277D1*
X11296881Y19950677D1*
X11287110Y19940906D1*
X11272510Y19936077D1*
X11258023D1*
X11243423Y19940906D1*
X11238593Y19945848D1*
X11233652Y19955506D1*
X11171923Y18914440D2*
X11228077D1*
X13839936Y12477943D2*
X13830165Y12468284D1*
X13825335Y12453684D1*
Y12434255D1*
X13830165Y12419655D1*
X13839935Y12409884D1*
X13849594D1*
X13859365Y12414826D1*
X13864194Y12419655D1*
X13869023Y12429313D1*
X13878794Y12458513D1*
X13883623Y12468284D1*
X13888565Y12473113D1*
X13898223Y12477942D1*
X13912823D1*
X13922482Y12468284D1*
X13927423Y12453684D1*
Y12434255D1*
X13922482Y12419655D1*
X13912823Y12409884D1*
X13825336Y12509315D2*
X13927423D1*
Y12553115D1*
X13922482Y12567715D1*
X13917652Y12572544D1*
X13907994Y12577373D1*
X13893394D1*
X13883623Y12572544D1*
X13878794Y12567715D1*
X13873965Y12553115D1*
X13869023Y12567715D1*
X13864194Y12572544D1*
X13854536Y12577373D1*
X13844765D1*
X13835106Y12572544D1*
X13830165Y12567715D1*
X13825336Y12553115D1*
Y12509315D1*
X13873965D2*
Y12553115D1*
X13839936Y12667034D2*
X13830277Y12662204D1*
X13825448Y12647604D1*
Y12637946D1*
X13830277Y12623346D1*
X13844877Y12613575D1*
X13869136Y12608746D1*
X13893394D1*
X13912823Y12613575D1*
X13922594Y12623346D1*
X13927423Y12637946D1*
Y12642775D1*
X13922594Y12657263D1*
X13912823Y12667034D1*
X13898223Y12671863D1*
X13893394D1*
X13878794Y12667034D1*
X13869135Y12657263D1*
X13864306Y12642775D1*
Y12637946D1*
X13869136Y12623346D1*
X13878794Y12613575D1*
X13893394Y12608746D1*
X11056709Y10226305D2*
X11158797Y10265163D1*
X11056709Y10304022D1*
Y10369423D2*
X11158796D1*
X11056709Y10335394D2*
Y10403452D1*
X11076250Y10434825D2*
X11071309Y10444596D1*
X11056821Y10459196D1*
X11158796D1*
X7938384Y12043665D2*
X8006442Y11941577D1*
Y12043665D2*
X7938384Y11941577D1*
X8037815Y11990206D2*
X8081615D1*
X8096102Y11995035D1*
X8101044Y11999977D1*
X8105873Y12009635D1*
Y12024235D1*
X8101044Y12033894D1*
X8096102Y12038835D1*
X8081615Y12043665D1*
X8037815D1*
Y11941577D1*
X8137246Y12024123D2*
X8147016Y12029065D1*
X8161616Y12043552D1*
Y11941577D1*
X11155040Y8860041D2*
X11223098Y8757954D1*
Y8860041D2*
X11155040Y8757954D1*
X11254471Y8806583D2*
X11298271D1*
X11312758Y8811412D1*
X11317700Y8816354D1*
X11322529Y8826012D1*
Y8840612D1*
X11317700Y8850271D1*
X11312758Y8855212D1*
X11298271Y8860041D1*
X11254471D1*
Y8757954D1*
X11358843Y8835671D2*
Y8840500D1*
X11363673Y8850271D1*
X11368502Y8855100D1*
X11378273Y8859929D1*
X11397702D1*
X11407360Y8855100D1*
X11412189Y8850271D1*
X11417131Y8840500D1*
Y8830841D1*
X11412189Y8821071D1*
X11402531Y8806583D1*
X11353902Y8757954D1*
X11421960D1*
X5087709Y15329667D2*
X5189797Y15397725D1*
X5087709D2*
X5189796Y15329667D1*
X5141167Y15429098D2*
Y15472898D1*
X5136338Y15487385D1*
X5131397Y15492327D1*
X5121738Y15497156D1*
X5107138D1*
X5097480Y15492327D1*
X5092538Y15487385D1*
X5087709Y15472898D1*
Y15429098D1*
X5189797Y15429097D1*
X5087821Y15538299D2*
Y15591645D1*
X5126680Y15562558D1*
Y15577158D1*
X5131509Y15586816D1*
X5136338Y15591645D1*
X5150938Y15596587D1*
X5160596D1*
X5175196Y15591645D1*
X5184967Y15581987D1*
X5189796Y15567387D1*
Y15552787D1*
X5184967Y15538299D1*
X5180026Y15533470D1*
X5170367Y15528528D1*
X2220145Y14638062D2*
X2322233Y14706120D1*
X2220146Y14706121D2*
X2322233Y14638062D1*
X2273604Y14737493D2*
Y14781293D1*
X2268775Y14795781D1*
X2263833Y14800722D1*
X2254175Y14805551D1*
X2239575D1*
X2229916Y14800722D1*
X2224975Y14795781D1*
X2220146Y14781293D1*
Y14737493D1*
X2322233D1*
Y14885553D2*
X2220258D1*
X2288204Y14836924D1*
Y14909812D1*
X6135163Y17859291D2*
X6203222Y17757204D1*
Y17859291D2*
X6135163Y17757204D1*
X6234594Y17805833D2*
X6278394D1*
X6292882Y17810662D1*
X6297823Y17815604D1*
X6302653Y17825262D1*
Y17839862D1*
X6297823Y17849521D1*
X6292882Y17854462D1*
X6278394Y17859291D1*
X6234594D1*
Y17757204D1*
X6392313Y17859179D2*
X6343796D1*
X6338967Y17815491D1*
X6343796Y17820321D1*
X6358396Y17825262D1*
X6372884D1*
X6387484Y17820321D1*
X6397254Y17810662D1*
X6402084Y17796062D1*
Y17786404D1*
X6397254Y17771804D1*
X6387484Y17762033D1*
X6372884Y17757204D1*
X6358396D1*
X6343796Y17762033D1*
X6338967Y17766974D1*
X6334025Y17776633D1*
X2257085Y20008761D2*
X2359173Y20076819D1*
X2257086D2*
X2359173Y20008761D1*
X2310544Y20108192D2*
Y20151992D1*
X2305715Y20166479D1*
X2300773Y20171421D1*
X2291115Y20176250D1*
X2276515D1*
X2266856Y20171421D1*
X2261915Y20166479D1*
X2257086Y20151992D1*
Y20108192D1*
X2359173D1*
X2271686Y20265910D2*
X2262027Y20261081D1*
X2257198Y20246481D1*
Y20236823D1*
X2262027Y20222223D1*
X2276627Y20212452D1*
X2300886Y20207623D1*
X2325144D1*
X2344573Y20212452D1*
X2354344Y20222223D1*
X2359173Y20236823D1*
Y20241652D1*
X2354344Y20256139D1*
X2344573Y20265910D1*
X2329973Y20270739D1*
X2325144D1*
X2310544Y20265910D1*
X2300885Y20256140D1*
X2296056Y20241652D1*
Y20236823D1*
X2300886Y20222223D1*
X2310544Y20212452D1*
X2325144Y20207623D1*
X6009237Y14553593D2*
D92*
Y14444233D1*
X5954627Y14498843D2*
X6063987D1*
X6984157Y16784990D2*
D90*
X6974498Y16794761D1*
X6959898Y16799590D1*
X6940469D1*
X6925869Y16794761D1*
X6916098Y16784990D1*
Y16775331D1*
X6921040Y16765561D1*
X6925869Y16760731D1*
X6935527Y16755902D1*
X6964727Y16746131D1*
X6974498Y16741302D1*
X6979327Y16736361D1*
X6984157Y16726702D1*
Y16712102D1*
X6974498Y16702444D1*
X6959898Y16697502D1*
X6940469D1*
X6925869Y16702444D1*
X6916098Y16712102D1*
X7015529Y16799590D2*
Y16697502D1*
X7083588Y16799590D2*
Y16697502D1*
X7015529Y16750961D2*
X7083588D1*
X7114960Y16799590D2*
Y16697502D1*
X7148989D1*
X7163589Y16702444D1*
X7173360Y16712102D1*
X7178189Y16721873D1*
X7183019Y16736361D1*
Y16760731D1*
X7178189Y16775331D1*
X7173360Y16784990D1*
X7163589Y16794761D1*
X7148989Y16799590D1*
X7114960D1*
X7243591D2*
X7233820Y16794761D1*
X7224162Y16784990D1*
X7219220Y16775331D1*
X7214391Y16760731D1*
Y16736361D1*
X7219220Y16721873D1*
X7224162Y16712102D1*
X7233820Y16702444D1*
X7243591Y16697502D1*
X7263020D1*
X7272679Y16702444D1*
X7282450Y16712102D1*
X7287279Y16721873D1*
X7292108Y16736361D1*
Y16760731D1*
X7287279Y16775331D1*
X7282450Y16784990D1*
X7272679Y16794761D1*
X7263020Y16799590D1*
X7243591D1*
X7323481D2*
X7347851Y16697502D1*
X7372110Y16799590D1*
X7396368Y16697502D1*
X7420739Y16799590D1*
X7520170D2*
Y16697502D1*
X7452112Y16799590D1*
Y16697502D1*
X4007627Y18041197D2*
D93*
Y18186972D1*
X3997968Y18216172D1*
X3978427Y18235489D1*
X3949227Y18245372D1*
X3929910D1*
X3900710Y18235489D1*
X3881168Y18216172D1*
X3871510Y18186972D1*
Y18041197D1*
X3672648Y18070397D2*
X3691965Y18050855D1*
X3721165Y18041197D1*
X3760023D1*
X3789223Y18050855D1*
X3808765Y18070397D1*
Y18089714D1*
X3798882Y18109255D1*
X3789223Y18118914D1*
X3769906Y18128572D1*
X3711506Y18148114D1*
X3691965Y18157772D1*
X3682307Y18167655D1*
X3672648Y18186972D1*
Y18216172D1*
X3691965Y18235489D1*
X3721165Y18245372D1*
X3760023D1*
X3789223Y18235489D1*
X3808765Y18216172D1*
X3609903Y18041197D2*
Y18245372D1*
X3522303D1*
X3493103Y18235489D1*
X3483445Y18225831D1*
X3473786Y18206514D1*
Y18177314D1*
X3483445Y18157772D1*
X3493103Y18148114D1*
X3522303Y18138455D1*
X3493103Y18128572D1*
X3483445Y18118914D1*
X3473786Y18099597D1*
Y18080055D1*
X3483444Y18060738D1*
X3493103Y18050855D1*
X3522303Y18041197D1*
X3609903D1*
Y18138455D2*
X3522303D1*
M02*
