M48
METRIC,0000.00
T01C0.8
T02C0.9
T03C1.0
T04C1.1
T05C1.5
T06C1.8
T07C2.4
T08C3.0
T09C3.1
%
T01
X+010145Y+018210
X+009891Y+018210
X+009638Y+018210
T02
X+007129Y+015749
X+006875Y+015749
X+006431Y+015733
X+006145Y+015289
X+005859Y+014415
X+005637Y+014511
X+005796Y+013828
X+005891Y+013574
X+006145Y+013574
X+006399Y+013574
X+006653Y+013574
X+006907Y+013574
X+007161Y+013574
X+007669Y+013574
X+007923Y+013574
X+008177Y+013574
X+008431Y+013574
X+008685Y+013574
X+008939Y+013574
X+009193Y+013574
X+009447Y+013574
X+009955Y+013574
X+010209Y+013574
X+010463Y+013574
X+010717Y+013574
X+010971Y+013574
X+011225Y+013574
X+011479Y+013574
X+011733Y+013574
X+011606Y+013161
X+011479Y+012812
X+011733Y+012812
X+011225Y+012812
X+010971Y+012812
X+010717Y+012812
X+010463Y+012812
X+010209Y+012812
X+009955Y+012812
X+009860Y+012472
X+010209Y+012472
X+010463Y+012472
X+010209Y+012123
X+010844Y+012155
X+011035Y+012272
X+011225Y+012082
X+011987Y+012123
X+011225Y+013161
X+010971Y+013161
X+010717Y+013161
X+010431Y+013828
X+009447Y+012812
X+009193Y+012812
X+008939Y+012812
X+008685Y+012812
X+008431Y+012812
X+008177Y+012812
X+007923Y+012812
X+007669Y+012812
X+007161Y+012812
X+006907Y+012812
X+006653Y+012812
X+006399Y+012812
X+006145Y+012812
X+005891Y+012812
X+005637Y+012812
X+005383Y+012812
X+005891Y+013320
X+005637Y+013574
X+005383Y+013574
X+004510Y+013463
X+004510Y+013717
X+004510Y+013971
X+004510Y+014225
X+004510Y+014479
X+004510Y+014733
X+004510Y+014987
X+004510Y+015241
X+004510Y+015495
X+004510Y+015749
X+004510Y+016003
X+004510Y+016257
X+004510Y+016511
X+004510Y+016765
X+004510Y+017019
X+004510Y+017273
X+004510Y+017527
X+004510Y+017781
X+004510Y+018035
X+004891Y+018035
X+006100Y+017575
X+006304Y+017575
X+006406Y+017321
X+006202Y+017321
X+005827Y+016590
X+006685Y+016273
X+007272Y+016130
X+007399Y+015574
X+007709Y+015011
X+007098Y+014892
X+007129Y+014622
X+006621Y+013955
X+006653Y+013225
X+006399Y+013225
X+004510Y+013209
X+004176Y+013415
X+003303Y+013368
X+002986Y+013463
X+002986Y+013717
X+002986Y+013971
X+002986Y+014225
X+002986Y+014479
X+002986Y+014733
X+002986Y+014987
X+002986Y+015241
X+002986Y+015495
X+002986Y+015749
X+002986Y+016003
X+002986Y+016257
X+002986Y+016511
X+002986Y+016765
X+002986Y+017019
X+002986Y+017273
X+002986Y+017527
X+002986Y+017781
X+002986Y+018035
X+003478Y+017781
X+003700Y+017273
X+003954Y+017003
X+003303Y+017019
X+003303Y+016511
X+003399Y+015606
X+003859Y+014971
X+004176Y+015067
X+003859Y+014622
X+003272Y+013971
X+002986Y+013209
X+003113Y+012240
X+003748Y+012463
X+004478Y+012399
X+004621Y+010470
X+004875Y+010470
X+005129Y+010470
X+005383Y+010470
X+005637Y+010470
X+005891Y+010470
X+005383Y+010209
X+005383Y+009732
X+005129Y+009415
X+004875Y+009574
X+004589Y+009923
X+004621Y+008946
X+004875Y+008946
X+005129Y+008946
X+005383Y+008946
X+005637Y+008946
X+005891Y+008946
X+005891Y+009256
X+007606Y+009732
X+007860Y+009923
X+008113Y+010209
X+008431Y+010470
X+008685Y+010470
X+008939Y+010470
X+009193Y+010470
X+009447Y+010470
X+009701Y+010470
X+010209Y+010209
X+009701Y+009383
X+009701Y+008946
X+009447Y+008946
X+009193Y+008946
X+008939Y+008946
X+008685Y+008946
X+008431Y+008946
X+008685Y+009574
X+008939Y+009415
X+009193Y+009224
X+009256Y+009573
X+008939Y+010018
X+008685Y+010209
X+010050Y+009097
X+011416Y+010216
X+011416Y+010470
X+008939Y+013225
X+008685Y+013225
X+008431Y+013828
X+010114Y+015679
X+010497Y+015693
X+010225Y+019346
X+008240Y+019346
X+006812Y+019346
X+007193Y+017590
X+004891Y+016495
X+002399Y+015701
X+004780Y+019632
X+004718Y+020409
X+002970Y+009200
X+002970Y+008946
T03
X+010830Y+018090
X+010830Y+017840
X+011487Y+017194
X+011737Y+017194
X+011987Y+017194
X+009828Y+017384
X+009578Y+017384
X+008578Y+017384
X+008328Y+017384
X+007178Y+016484
X+008328Y+015484
X+008578Y+015484
X+009328Y+015484
X+009578Y+015484
X+009828Y+015484
X+006686Y+014495
X+006336Y+014495
X+005351Y+015225
X+005351Y+015479
X+005351Y+015733
X+002065Y+015273
X+002065Y+015023
X+002065Y+014773
X+002065Y+014523
X+002065Y+014273
X+004113Y+011733
X+004367Y+011733
X+004621Y+011733
X+004875Y+011733
X+005129Y+011733
X+005383Y+011733
X+005637Y+011733
X+005891Y+011733
X+006145Y+011733
X+006399Y+011733
X+006653Y+011733
X+006907Y+011733
X+007161Y+011733
X+007415Y+011733
X+007669Y+011733
X+007923Y+011733
X+008177Y+011733
X+008431Y+011733
X+008685Y+011733
X+008939Y+011733
X+009193Y+011733
X+009447Y+011733
X+009701Y+011733
X+009955Y+011733
X+010209Y+011733
X+010463Y+011733
X+010717Y+011733
X+010971Y+011733
X+011225Y+011733
X+011479Y+011733
X+011733Y+011733
X+011987Y+011733
X+011924Y+008565
X+012177Y+008565
X+012431Y+008565
X+012686Y+008565
X+012939Y+008565
X+011669Y+008565
X+011415Y+008565
X+011162Y+008565
X+010907Y+008565
X+010653Y+008565
X+010400Y+008565
X+010145Y+008565
X+009891Y+008565
X+009638Y+008565
X+009383Y+008565
X+009129Y+008565
X+008875Y+008565
X+008622Y+008565
X+008367Y+008565
X+008113Y+008565
X+007860Y+008565
X+007605Y+008565
X+007351Y+008565
X+007098Y+008565
X+006843Y+008565
X+006589Y+008565
X+006336Y+008565
X+006081Y+008565
X+005827Y+008565
X+005574Y+008565
X+005319Y+008565
X+005065Y+008565
T04
X+010653Y+015161
X+012653Y+015161
X+012250Y+010131
X+012250Y+009877
X+012250Y+009623
X+012250Y+009369
X+014150Y+009369
X+014150Y+009623
X+014150Y+009877
X+014150Y+010131
T05
X+014606Y+011591
X+014352Y+011591
X+014098Y+011591
X+013844Y+011591
X+013950Y+011900
X+014450Y+011900
X+014450Y+013150
X+014352Y+013492
X+014098Y+013492
X+013844Y+013492
X+013950Y+013150
X+014606Y+013492
X+014606Y+014091
X+014352Y+014091
X+014098Y+014091
X+013844Y+014091
X+013950Y+014400
X+014450Y+014400
X+014450Y+015650
X+014352Y+015992
X+014098Y+015992
X+013844Y+015992
X+013950Y+015650
X+014606Y+015992
X+011825Y+019350
X+011825Y+019850
X+010575Y+019850
X+010575Y+019350
X+009825Y+019350
X+009825Y+019850
X+008575Y+019850
X+008575Y+019350
X+006325Y+019350
X+006325Y+019850
X+005075Y+019850
X+005075Y+019350
X+004325Y+019350
X+004325Y+019850
X+003075Y+019850
X+002600Y+019950
X+002600Y+019600
X+002600Y+019250
X+002600Y+018900
X+003075Y+019350
X+002600Y+020300
T00
M30
