%TF.GenerationSoftware,Novarm,DipTrace,3.3.0.1*%
%TF.CreationDate,2019-03-05T05:49:40+02:00*%
%FSLAX35Y35*%
%MOMM*%
%TF.FileFunction,Copper,L1,Top*%
%TF.Part,Single*%
%ADD91C,0.39216*%
%TA.AperFunction,Conductor*%
%ADD13C,0.5*%
%TA.AperFunction,ComponentPad*%
%ADD18R,1.7X1.7*%
%ADD19C,1.7*%
%ADD22R,1.6X1.6*%
%ADD23C,1.6*%
%ADD24C,1.5*%
%ADD25R,1.5X1.5*%
%ADD33C,1.6*%
%ADD35C,1.5*%
%ADD37R,1.9X1.9*%
%ADD38C,1.9*%
%ADD39R,2.3X2.3*%
%ADD40C,2.3*%
%ADD41C,2.0*%
%ADD42O,2.8X3.2*%
%ADD43R,2.5X2.5*%
%ADD44C,2.5*%
%ADD47R,1.62X1.62*%
%ADD48C,1.62*%
%TA.AperFunction,ViaPad*%
%ADD49C,1.4*%
G75*
G01*
%LPD*%
X4176000Y15066750D2*
D13*
Y16781250D1*
X3954250Y17003000D1*
X10844000Y12154500D2*
Y12367500D1*
X10907500Y12431000D1*
X11660250D1*
X11987000Y12757750D1*
Y13923250D1*
X11653623Y14256627D1*
X7986497D1*
X7145123Y15098000D1*
X5605250D1*
X5113127Y14605877D1*
X4382877D1*
X4176500Y14399500D1*
Y13415250D1*
X10209000Y12122750D2*
X10463000D1*
X10685250Y12345000D1*
Y12462750D1*
X10812250Y12589750D1*
X11542500D1*
X11606000Y12653250D1*
Y13161250D1*
X7399127Y15574250D2*
Y15796503D1*
X7543750Y15941127D1*
Y17661377D1*
X7415000Y17790127D1*
Y18066623D1*
X7240373Y18241250D1*
X2827127D1*
X2716000Y18130123D1*
Y13970873D1*
X2842997Y13843877D1*
X3144627D1*
X3271627Y13970877D1*
X11987000Y12122750D2*
X11796500Y11932250D1*
X2833750D1*
X2398500Y12367500D1*
Y15701250D1*
X5891000Y9256000D2*
X9002500D1*
X9129500Y9383000D1*
X9701000D1*
X5129000Y9414750D2*
X8939000D1*
X4875000Y9573500D2*
X8685000D1*
X9859750Y12472000D2*
X9605750D1*
X9447000Y12313250D1*
X4754623D1*
X4668623Y12399250D1*
X4478127D1*
X10209000Y12472000D2*
X10113750D1*
X9828000Y12186250D1*
X4230750D1*
X3954250Y12462750D1*
X3747877D1*
X10463000Y12472000D2*
X10304250Y12313250D1*
X10113750D1*
X9859750Y12059250D1*
X3611623D1*
X3430373Y12240500D1*
X3112877D1*
X5795750Y13828000D2*
X6414873D1*
X6462497Y13780377D1*
X6795877D1*
X6843500Y13828000D1*
X8431000D1*
X10431020D1*
X11225000Y12081750D2*
X11383750D1*
X11447250Y12145250D1*
X11723750D1*
X12241000Y12662500D1*
Y14097873D1*
X11780623Y14558250D1*
X8161123D1*
X7708687Y15010687D1*
X7256247Y15463127D1*
X6700623D1*
X6430750Y15733000D1*
X7272123Y16129877D2*
X6820997D1*
X6678123Y16272750D1*
X6684750D1*
X7097500Y14891627D2*
X6018000D1*
X5637000Y14510627D1*
X3398627Y15606000D2*
X3224000Y15431373D1*
Y14367753D1*
X3462127Y14129627D1*
Y13764500D1*
X3303373Y13605747D1*
Y13367627D1*
X6621250Y13955000D2*
X7113377D1*
X7319750Y14161373D1*
Y14685250D1*
X7113373Y14891627D1*
X7097500D1*
X10496500Y15692873D2*
X10113750D1*
Y15679097D1*
X4890877Y16495000D2*
Y18034877D1*
X3303377Y16510877D2*
X3557377Y16256877D1*
Y15447250D1*
X3366877Y15256750D1*
Y14383623D1*
X3573250Y14177250D1*
Y13256500D1*
X4128873Y12700877D1*
X4859127D1*
X5129000Y12970750D1*
X10431250D1*
X10621750Y13161250D1*
X10717000D1*
X10971000D2*
X10844000Y13288250D1*
X10590000D1*
X10478877Y13177127D1*
X9240627D1*
X9145377Y13081877D1*
X8827873D1*
X8685000Y13224750D1*
X8558000D1*
X8431000Y13097750D1*
X6526000D1*
X6399000Y13224750D1*
X3303377Y17018877D2*
Y16764873D1*
X3668500Y16399750D1*
Y15383750D1*
X3478000Y15193250D1*
Y14431250D1*
X3700250Y14209000D1*
Y13288250D1*
X4176500Y12812000D1*
X4811500D1*
X5097250Y13097750D1*
X5573500D1*
X5605250Y13066000D1*
X6113250D1*
X6272000Y13224750D1*
X6399000D1*
X5891000Y13320000D2*
X5732250D1*
X5700500Y13351750D1*
X5033750D1*
X4732127Y13050127D1*
X4271750D1*
X3922500Y13399377D1*
Y14304250D1*
X3700250Y14526500D1*
Y15082123D1*
X3890750Y15272623D1*
Y16637877D1*
X3700250Y16828377D1*
Y17272877D1*
X11225000Y13161250D2*
X11002750Y13383500D1*
X10494750D1*
X10415377Y13304127D1*
X9161253D1*
X9081877Y13224750D1*
X8939000D1*
X8907250D1*
X8780250Y13351750D1*
X8462750D1*
X8335750Y13224750D1*
X6653000D1*
X3478000Y17780877D2*
Y16812503D1*
X3779627Y16510877D1*
Y15320250D1*
X3589127Y15129750D1*
Y14478877D1*
X3811377Y14256627D1*
Y13335873D1*
X4208250Y12939000D1*
X4779750D1*
X5065500Y13224750D1*
X5637000D1*
X5684623Y13177127D1*
X6033877D1*
X6208500Y13351750D1*
X6526000D1*
X6653000Y13224750D1*
X11034500Y12272250D2*
X11692000D1*
X12114000Y12694250D1*
Y14002623D1*
X11717123Y14399500D1*
X8050000D1*
X7160500Y15289000D1*
X6145000D1*
X3859000Y14971000D2*
X4017750Y14812250D1*
X4176503D1*
X4319377Y14955123D1*
Y16018753D1*
X4430500Y16129877D1*
X5081377D1*
X5906877Y16955377D1*
X6557753D1*
X7192750Y17590373D1*
X3859000Y14621750D2*
X4176500D1*
X4414627Y14859877D1*
X4795627D1*
X4970250Y15034500D1*
Y15733000D1*
X5827500Y16590250D1*
X9256500Y9573500D2*
X8939000Y9891000D1*
Y10018000D1*
X5383000Y9732250D2*
X7605500D1*
X10050250Y9097250D2*
X9701000D1*
X9574000Y9224250D1*
X9193000D1*
X7859500Y9922750D2*
X4589250D1*
X10209000Y10208500D2*
X8685000D1*
X5383050D2*
X8113500D1*
X7129250Y14621750D2*
X6811750Y14304250D1*
X5970373D1*
X5859250Y14415373D1*
X2600000Y18900000D2*
X6365877D1*
X6811750Y19345873D1*
X2600000Y20300000D2*
X2797003D1*
X2906500Y20409497D1*
X4717873D1*
X2600000Y19950000D2*
X2621627D1*
X2906500Y20234873D1*
X9970870D1*
X10224873Y19980870D1*
Y19345873D1*
X2600000Y19600000D2*
X2620880D1*
X2843000Y19822120D1*
Y19949123D1*
X2985877Y20092000D1*
X8050000D1*
X8240500Y19901500D1*
Y19345873D1*
X2600000Y19250000D2*
X2981620Y19631620D1*
X4779750D1*
D49*
X3954250Y17003000D3*
X4176000Y15066750D3*
X10844000Y12154500D3*
X4176500Y13415250D3*
X3954250Y17003000D3*
X10209000Y12122750D3*
X11606000Y13161250D3*
X7399127Y15574250D3*
X3271627Y13970877D3*
X11987000Y12122750D3*
X2398500Y15701250D3*
X5891000Y9256000D3*
X9701000Y9383000D3*
X5129000Y9414750D3*
X8939000D3*
X4875000Y9573500D3*
X8685000D3*
X9859750Y12472000D3*
X4478127Y12399250D3*
X10209000Y12472000D3*
X3747877Y12462750D3*
X10463000Y12472000D3*
X3112877Y12240500D3*
X5795750Y13828000D3*
X8431000D3*
D3*
X10431020D3*
X11225000Y12081750D3*
X6430750Y15733000D3*
X7272123Y16129877D3*
X6684750Y16272750D3*
X5637000Y14510627D3*
X3398627Y15606000D3*
X3303373Y13367627D3*
X6621250Y13955000D3*
X6430750Y15733000D3*
X7708687Y15010687D3*
X10496500Y15692873D3*
X10113750Y15679097D3*
X4890877Y16495000D3*
Y18034877D3*
X3303377Y16510877D3*
X10717000Y13161250D3*
X10971000D3*
X8685000Y13224750D3*
X6399000D3*
X3303377Y17018877D3*
X5891000Y13320000D3*
X3700250Y17272877D3*
X11225000Y13161250D3*
X8939000Y13224750D3*
X6653000D3*
X3478000Y17780877D3*
X11034500Y12272250D3*
X6145000Y15289000D3*
X3859000Y14971000D3*
X7192750Y17590373D3*
X3859000Y14621750D3*
X5827500Y16590250D3*
X9256500Y9573500D3*
X8939000Y10018000D3*
X5383000Y9732250D3*
X7605500D3*
X10050250Y9097250D3*
X9193000Y9224250D3*
X7859500Y9922750D3*
X4589250D3*
X10209000Y10208500D3*
X8685000D3*
X5383050D3*
X8113500D3*
X7129250Y14621750D3*
X5859250Y14415373D3*
X6811750Y19345873D3*
X4717873Y20409497D3*
X10224873Y19345873D3*
X8240500D3*
X4779750Y19631620D3*
X7097500Y14891627D3*
D18*
X10829877Y18090000D3*
D19*
Y17840000D3*
D18*
X6335500Y14494750D3*
D19*
X6685500D3*
D22*
X7129250Y15748877D3*
D23*
X6875250D3*
D24*
X2970000Y8945750D3*
D25*
Y9199750D3*
D19*
X9828000Y17384000D3*
X9578000D3*
X8578000D3*
X8328000D3*
X9828000Y15484000D3*
X9578000D3*
X9328000D3*
X8578000D3*
X8328000D3*
D18*
X7178000Y16484000D3*
D25*
X5383000Y12812000D3*
D24*
X5637000D3*
X5891000D3*
X6145000D3*
X6399000D3*
X6653000D3*
X6907000D3*
X7161000D3*
Y13574000D3*
X6907000D3*
X6653000D3*
X6399000D3*
X6145000D3*
X5891000D3*
X5637000D3*
X5383000D3*
D25*
X7669000Y12812000D3*
D24*
X7923000D3*
X8177000D3*
X8431000D3*
X8685000D3*
X8939000D3*
X9193000D3*
X9447000D3*
Y13574000D3*
X9193000D3*
X8939000D3*
X8685000D3*
X8431000D3*
X8177000D3*
X7923000D3*
X7669000D3*
D25*
X9955000Y12812000D3*
D24*
X10209000D3*
X10463000D3*
X10717000D3*
X10971000D3*
X11225000D3*
X11479000D3*
X11733000D3*
Y13574000D3*
X11479000D3*
X11225000D3*
X10971000D3*
X10717000D3*
X10463000D3*
X10209000D3*
X9955000D3*
D22*
X10145500Y18209500D3*
D33*
X9891500D3*
X9637500D3*
D24*
X4509873Y13208877D3*
Y13462877D3*
Y13716877D3*
Y13970877D3*
Y14224877D3*
Y14478877D3*
Y14732877D3*
Y14986877D3*
Y15240877D3*
Y15494877D3*
Y15748877D3*
Y16002877D3*
Y16256877D3*
Y16510877D3*
Y16764877D3*
Y17018877D3*
Y17272877D3*
Y17526877D3*
Y17780877D3*
Y18034877D3*
X2985873D3*
Y17780877D3*
Y17526877D3*
Y17272877D3*
Y17018877D3*
Y16764877D3*
Y16510877D3*
Y16256877D3*
Y16002877D3*
Y15748877D3*
Y15494877D3*
Y15240877D3*
Y14986877D3*
Y14732877D3*
Y14478877D3*
Y14224877D3*
Y13970877D3*
Y13716877D3*
Y13462877D3*
Y13208877D3*
D25*
X5891000Y10469750D3*
D35*
X5637050D3*
X5383050D3*
X5129050D3*
X4875050D3*
X4621050D3*
X5891000Y8945750D3*
X5637100D3*
X5383000D3*
X5129000D3*
X4875000D3*
X4621000D3*
D25*
X9701000Y10469750D3*
D35*
X9447050D3*
X9193050D3*
X8939050D3*
X8685050D3*
X8431050D3*
X9701000Y8945750D3*
X9447100D3*
X9193000D3*
X8939000D3*
X8685000D3*
X8431000D3*
D37*
X10653500Y15161500D3*
D38*
X12653500D3*
D18*
X12250000Y9369000D3*
D19*
Y9623000D3*
Y9877000D3*
Y10131000D3*
D18*
X14150000D3*
D19*
Y9877000D3*
Y9623000D3*
Y9369000D3*
D39*
X14606250Y11591500D3*
D40*
X14352250D3*
X14098250D3*
X13844250D3*
D39*
Y13491500D3*
D40*
X14098250D3*
X14352250D3*
X14606250D3*
D39*
Y14091500D3*
D40*
X14352250D3*
X14098250D3*
X13844250D3*
D39*
Y15991500D3*
D40*
X14098250D3*
X14352250D3*
X14606250D3*
D41*
X11987000Y17193500D3*
X11737000D3*
X11487000D3*
D42*
X12227000Y16863500D3*
X11247000D3*
D43*
X13950000Y14400000D3*
D44*
X14450000D3*
Y15650000D3*
X13950000D3*
D43*
X6325000Y19350000D3*
D44*
Y19850000D3*
X5075000D3*
Y19350000D3*
D43*
X4325000D3*
D44*
Y19850000D3*
X3075000D3*
Y19350000D3*
D43*
X9825000D3*
D44*
Y19850000D3*
X8575000D3*
Y19350000D3*
D43*
X11825000D3*
D44*
Y19850000D3*
X10575000D3*
Y19350000D3*
D43*
X13950000Y11900000D3*
D44*
X14450000D3*
Y13150000D3*
X13950000D3*
D25*
X11415500Y10215750D3*
D24*
Y10469750D3*
D47*
X4113000Y11732500D3*
D48*
X4367000D3*
X4621000D3*
X4875000D3*
X5129000D3*
X5383000D3*
X5637000D3*
X5891000D3*
X6145000D3*
X6399000D3*
X6653000D3*
X6907000D3*
X7161000D3*
X7415000D3*
X7669000D3*
X7923000D3*
X8177000D3*
X8431000D3*
X8685000D3*
X8939000D3*
X9193000D3*
X9447000D3*
X9701000D3*
X9955000D3*
X10209000D3*
X10463000D3*
X10717000D3*
X10971000D3*
X11225000D3*
X11479000D3*
X11733000D3*
X11987000D3*
D47*
X5065500Y8564750D3*
D48*
X5319500D3*
X5573500D3*
X5827500D3*
X6081500D3*
X6335500D3*
X6589500D3*
X6843500D3*
X7097500D3*
X7351500D3*
X7605500D3*
X7859500D3*
X8113500D3*
X8367500D3*
X8621500D3*
X8875500D3*
X9129500D3*
X9383500D3*
X9637500D3*
X9891500D3*
X10145500D3*
X10399500D3*
X10653500D3*
X10907500D3*
X11161500D3*
X11415500D3*
X11669500D3*
X11923500D3*
X12177500D3*
X12431500D3*
X12685500D3*
X12939500D3*
D47*
X5351250Y15733000D3*
D48*
Y15479000D3*
Y15225000D3*
D18*
X2065123Y14272500D3*
D19*
Y14522500D3*
Y14772500D3*
Y15022500D3*
Y15272500D3*
D24*
X6303750Y17574500D3*
X6405750Y17320500D3*
X6201750D3*
X6099750Y17574500D3*
D39*
X2600000Y18900000D3*
D40*
Y19250000D3*
Y19600000D3*
Y19950000D3*
Y20300000D3*
X7605501Y18238207D2*
D91*
Y17982987D1*
X7690574D1*
X7727074Y17995341D1*
X7751501Y18019487D1*
X7763574Y18043914D1*
X7775647Y18080133D1*
Y18141060D1*
X7763574Y18177560D1*
X7751501Y18201707D1*
X7727074Y18226133D1*
X7690574Y18238207D1*
X7605501D1*
X7854079D2*
X7866152Y18226133D1*
X7878506Y18238207D1*
X7866152Y18250560D1*
X7854079Y18238207D1*
X7866152Y18153133D2*
Y17982987D1*
X8151229D2*
Y18238207D1*
X8054083Y17982987D1*
X7956937Y18238207D1*
Y17982987D1*
X8290307Y18153133D2*
X8266161Y18141060D1*
X8241734Y18116633D1*
X8229661Y18080133D1*
Y18055987D1*
X8241734Y18019487D1*
X8266161Y17995341D1*
X8290307Y17982987D1*
X8326807D1*
X8351234Y17995341D1*
X8375380Y18019487D1*
X8387734Y18055987D1*
Y18080133D1*
X8375380Y18116633D1*
X8351234Y18141060D1*
X8326807Y18153133D1*
X8290307D1*
X8526811D2*
X8502665Y18141060D1*
X8478238Y18116633D1*
X8466165Y18080133D1*
Y18055987D1*
X8478238Y18019487D1*
X8502665Y17995341D1*
X8526811Y17982987D1*
X8563311D1*
X8587738Y17995341D1*
X8611884Y18019487D1*
X8624238Y18055987D1*
Y18080133D1*
X8611884Y18116633D1*
X8587738Y18141060D1*
X8563311Y18153133D1*
X8526811D1*
X8702670D2*
Y17982987D1*
Y18104560D2*
X8739170Y18141060D1*
X8763597Y18153133D1*
X8799816D1*
X8824243Y18141060D1*
X8836316Y18104560D1*
Y17982987D1*
X8128417Y17888957D2*
X7970625D1*
Y17633737D1*
X8128417D1*
X7970625Y17767383D2*
X8067771D1*
X8206848Y17888957D2*
Y17633737D1*
X8285280Y17730883D2*
X8430999D1*
Y17755310D1*
X8418926Y17779737D1*
X8406853Y17791810D1*
X8382426Y17803883D1*
X8345926D1*
X8321780Y17791810D1*
X8297353Y17767383D1*
X8285280Y17730883D1*
Y17706737D1*
X8297353Y17670237D1*
X8321780Y17646091D1*
X8345926Y17633737D1*
X8382426D1*
X8406853Y17646091D1*
X8430999Y17670237D1*
X8655430Y17767383D2*
X8631003Y17791810D1*
X8606576Y17803883D1*
X8570357D1*
X8545930Y17791810D1*
X8521784Y17767383D1*
X8509430Y17730883D1*
Y17706737D1*
X8521784Y17670237D1*
X8545930Y17646091D1*
X8570357Y17633737D1*
X8606576D1*
X8631003Y17646091D1*
X8655430Y17670237D1*
X8770362Y17888957D2*
Y17682310D1*
X8782435Y17646091D1*
X8806862Y17633737D1*
X8831008D1*
X8733862Y17803883D2*
X8818935D1*
X8909439D2*
Y17633737D1*
Y17730883D2*
X8921793Y17767383D1*
X8945939Y17791810D1*
X8970366Y17803883D1*
X9006866D1*
X9145944D2*
X9121797Y17791810D1*
X9097370Y17767383D1*
X9085297Y17730883D1*
Y17706737D1*
X9097370Y17670237D1*
X9121797Y17646091D1*
X9145944Y17633737D1*
X9182444D1*
X9206870Y17646091D1*
X9231017Y17670237D1*
X9243370Y17706737D1*
Y17730883D1*
X9231017Y17767383D1*
X9206870Y17791810D1*
X9182444Y17803883D1*
X9145944D1*
X9321802D2*
Y17633737D1*
Y17755310D2*
X9358302Y17791810D1*
X9382729Y17803883D1*
X9418948D1*
X9443375Y17791810D1*
X9455448Y17755310D1*
Y17633737D1*
X9533879Y17888957D2*
X9545952Y17876883D1*
X9558306Y17888957D1*
X9545952Y17901310D1*
X9533879Y17888957D1*
X9545952Y17803883D2*
Y17633737D1*
X9782738Y17767383D2*
X9758311Y17791810D1*
X9733884Y17803883D1*
X9697665D1*
X9673238Y17791810D1*
X9649091Y17767383D1*
X9636738Y17730883D1*
Y17706737D1*
X9649091Y17670237D1*
X9673238Y17646091D1*
X9697665Y17633737D1*
X9733884D1*
X9758311Y17646091D1*
X9782738Y17670237D1*
X9994815Y17767383D2*
X9982742Y17791810D1*
X9946242Y17803883D1*
X9909742D1*
X9873242Y17791810D1*
X9861169Y17767383D1*
X9873242Y17743237D1*
X9897669Y17730883D1*
X9958315Y17718810D1*
X9982742Y17706737D1*
X9994815Y17682310D1*
Y17670237D1*
X9982742Y17646091D1*
X9946242Y17633737D1*
X9909742D1*
X9873242Y17646091D1*
X9861169Y17670237D1*
M02*
